<svg id="Layer_1" data-name="Layer 1" xmlns="http://www.w3.org/2000/svg" viewBox="0 0 383.14 164.9"><defs><style>.cls-1{fill:#0a273c;}</style></defs><path class="cls-1" d="M113.6,98.8c0,12.12-3.15,23.75-8,34.76-3.37,7.58-7.54,14.82-11.35,22.21a5.52,5.52,0,0,1-5.61,3.3c-5.81-.15-11.61-.14-17.4,0A5.49,5.49,0,0,1,65.76,156c-.79-1.44-1.6-2.85-2.41-4.26-1.08-1.87-2.21-3.7-3.22-5.58-.85-1.55-1.61-3.13-2.34-4.73-.91-2-1.85-4-2.72-6l.06-.08c-.36-.73-.7-1.49-1-2.22a.29.29,0,0,1,0-.09q-.06-.12-.12-.27c0-.13-.09-.21-.09-.21-13-29.63-8.32-56.08,11-83C62,55.65,58.9,59.54,57.17,66c-8.3,30.8-3.38,59.6,13.76,86.42a5.55,5.55,0,0,0,5.31,2.89c4.58-.17,9.18.13,13.74-.17a5.49,5.49,0,0,0,4-2.32c10.39-20,16.46-41.08,14.16-63.94-.19-1.83-.66-3.64-1.06-5.79-5.4,2.3-11.6,2.3-17.26,1-2.82-.63-5.55-1.65-8.33-2.45l-5-1.48c-1.53-.4-3-.93-4.82-1.5,2.87.34,5.75.62,8.62,1,4.68.59,9.41,1.63,14.13,1.88,2.73.14,5.79-.37,7.83-2.34,2.22-2.13,1.65-5.38.34-7.83A54.56,54.56,0,0,0,90,55.57c-5-4.27-11.65-8.68-18.39-8.91a14.31,14.31,0,0,0-2.85.16,7.32,7.32,0,0,0-1.22.24l.32-.49C71,41.41,75,36.05,75.34,29.81a17.88,17.88,0,0,0-2-9.31c-1.13-2.13-2.64-4.11-3.28-6.44a12.2,12.2,0,0,1,.53-7.64,10.21,10.21,0,0,1,16.08-4c3.35,2.75,3.88,7.33,3,11.34A29.64,29.64,0,0,1,87,20.41,31.1,31.1,0,0,0,88.17,9.17a6.59,6.59,0,0,0-7.88-5.8,6.24,6.24,0,0,0-4.07,3.39c-2.58,5.19,0,11.41,3.09,15.72.19.28,3.62-4.47,3.85-4.9C85,14.17,86.48,9.42,83.93,6c0,.07,8.43,4.11-1.81,19.88a19.87,19.87,0,0,0,2.08,2.68c9.68,12.09,18.49,25.88,23.88,40.51.94,2.52,1.77,5.09,2.5,7.68A79.88,79.88,0,0,1,113.6,98.8Z"/><path class="cls-1" d="M64.73,58.13c-5.08,28.4-6,55.66,4.88,83C54.56,114.07,54.14,85.2,64.73,58.13Z"/><path class="cls-1" d="M83,79c5.31.46,18,2.44,18.17-3.34,3,7.62-12.93,4.79-18.13,3.4C83,79,82.94,78.88,83,79Z"/><path class="cls-1" d="M134.56,85.12a2.29,2.29,0,0,1,.44-1.37,6.57,6.57,0,0,1,1.21-1.21,5.43,5.43,0,0,0,1.11-1.09,3.66,3.66,0,0,0,.47-1.37L140,65.32a3.12,3.12,0,0,1,.83-1.55,6.07,6.07,0,0,1,1.67-1.29,4.24,4.24,0,0,1,1.94-.5c.43,0,.64.13.64.4a3.13,3.13,0,0,1-.36,1,8.67,8.67,0,0,0-.6,2.28l-.61,4.19h3.35a4.58,4.58,0,0,0,2.84-2,6.19,6.19,0,0,0,1.07-3.6,3.55,3.55,0,0,0-1.25-3,6.52,6.52,0,0,0-3.91-1,11.22,11.22,0,0,0-5.38,1.13,14.85,14.85,0,0,0-3.69,2.83,8,8,0,0,1-.79.76.84.84,0,0,1-.54.2c-.3,0-.45-.17-.45-.52a4.94,4.94,0,0,1,.2-.85,9.23,9.23,0,0,1,2.42-3.24,12.54,12.54,0,0,1,4.26-2.42,16.56,16.56,0,0,1,5.62-.91,10.39,10.39,0,0,1,6.11,1.55,5.24,5.24,0,0,1,2.15,4.54c0,2.93-1.51,5.29-4.55,7.09a10.23,10.23,0,0,1,3,3A6.5,6.5,0,0,1,155.08,77a7,7,0,0,1-1.57,4.45,10.58,10.58,0,0,1-4,3.11,12.56,12.56,0,0,1-5.1,1.1,37,37,0,0,1-3.79-.36c-1.35-.16-2.19-.24-2.54-.24a8.53,8.53,0,0,0-2.18.4,3,3,0,0,1-.89.2C134.69,85.68,134.56,85.5,134.56,85.12Zm14.43-4a3.73,3.73,0,0,0,1.41-3.17,5.53,5.53,0,0,0-3.22-5H143l-1,7a5.63,5.63,0,0,1-.22,1.07,3.83,3.83,0,0,1-.43.78l0,0a11.54,11.54,0,0,0,1.6.29,16.44,16.44,0,0,0,1.91.12A6.74,6.74,0,0,0,149,81.11Z"/><path class="cls-1" d="M158.93,84.41a6.14,6.14,0,0,1-1.71-4.61A10.21,10.21,0,0,1,159.09,74a16.45,16.45,0,0,1,5.34-4.82,19.05,19.05,0,0,1-.68-4.19,7.87,7.87,0,0,1,.95-3.85,7.35,7.35,0,0,1,2.58-2.78,6.57,6.57,0,0,1,3.6-1,4.33,4.33,0,0,1,2.93.93A3.44,3.44,0,0,1,174.88,61a6.53,6.53,0,0,1-1.54,4,20.31,20.31,0,0,1-4.67,4.11,10.2,10.2,0,0,0,.6,1.94,8.73,8.73,0,0,1,3.15-1.61,17.62,17.62,0,0,1,4.67-.49l3.35,0a6,6,0,0,0,3.1-.66,2.86,2.86,0,0,0,1.09-2.64,3.54,3.54,0,0,0-.18-1.29,3,3,0,0,0-.42-.75.84.84,0,0,1-.25-.46,2.13,2.13,0,0,1,.57-1.13,7.76,7.76,0,0,1,1.27-1.29,2.06,2.06,0,0,1,1.11-.57.56.56,0,0,1,.4.25,3.88,3.88,0,0,1,.57,1.35,8.85,8.85,0,0,1,.16,1.75A8,8,0,0,1,186.59,68,8.75,8.75,0,0,1,183,71a12.14,12.14,0,0,1-5.3,1.11h-.2a19.76,19.76,0,0,1-4.28,8.26,9.27,9.27,0,0,0,1.11,1.68,1.34,1.34,0,0,0,.95.5q1,0,2.22-1.53c.29-.41.53-.61.72-.61s.28.19.28.57a2.49,2.49,0,0,1,0,.52,5.87,5.87,0,0,1-1.71,3.14,4.08,4.08,0,0,1-2.92,1.42q-1.79,0-3.55-2.66a11.13,11.13,0,0,1-6.89,2.66A6.1,6.1,0,0,1,158.93,84.41Zm8.47-1.63a8.08,8.08,0,0,0,1.87-1.21q-1.34-2.7-2.28-5c-.63-1.52-1.27-3.28-1.91-5.3a8.69,8.69,0,0,0-2.44,3,8.87,8.87,0,0,0-.87,4,6.05,6.05,0,0,0,.95,3.63,3.21,3.21,0,0,0,2.76,1.29A4.69,4.69,0,0,0,167.4,82.78Zm3.69-20.56a3.51,3.51,0,0,0-.47-1.83,1.44,1.44,0,0,0-1.31-.79,1.46,1.46,0,0,0-1.35.91A5.58,5.58,0,0,0,167.5,63a19,19,0,0,0,.56,4Q171.09,64.76,171.09,62.22Zm2.27,12.56a14.79,14.79,0,0,0,.71-2.76h-.2A6.14,6.14,0,0,0,170,73a26.24,26.24,0,0,0,1.49,3.83c.08.22.17.42.26.61A3.6,3.6,0,0,1,172,78,24.85,24.85,0,0,0,173.36,74.78Z"/><path class="cls-1" d="M188.64,85.36a5.68,5.68,0,0,1-2.17-1.79,4.22,4.22,0,0,1-.83-2.12,5.05,5.05,0,0,1,.58-2.2,8.26,8.26,0,0,1,1.39-2c.54-.57,1-.85,1.25-.85.14,0,.23.16.29.48a29.37,29.37,0,0,0,.66,3.73,3.75,3.75,0,0,0,1.13,1.94,3.59,3.59,0,0,0,2.36.66,4.41,4.41,0,0,0,3.28-1.12A4.21,4.21,0,0,0,197.69,79a5,5,0,0,0-.48-2.26,16.16,16.16,0,0,0-1.73-2.54l-3.83-4.51a6.51,6.51,0,0,1-1.23-2,5.65,5.65,0,0,1-.35-2,8.33,8.33,0,0,1,1.05-4,8.19,8.19,0,0,1,3.09-3.15,9.36,9.36,0,0,1,4.85-1.21,6.49,6.49,0,0,1,3.73.93,3,3,0,0,1,1.35,2.62,4.42,4.42,0,0,1-.2,1.35,5.16,5.16,0,0,1-.52,1.19,4.41,4.41,0,0,1-.79,1,1.14,1.14,0,0,1-.74.28.61.61,0,0,1-.61-.38,3.88,3.88,0,0,1-.24-1.07,4,4,0,0,0-.83-2.36,3.07,3.07,0,0,0-2.44-.83,4,4,0,0,0-2.82.91,3,3,0,0,0-1,2.36,3.62,3.62,0,0,0,.33,1.55,6.54,6.54,0,0,0,1,1.51l3.87,4.44a11.68,11.68,0,0,1,2.06,3,7.47,7.47,0,0,1,.65,3.06,8.24,8.24,0,0,1-1.38,4.56,10.11,10.11,0,0,1-3.64,3.41A9.84,9.84,0,0,1,192,86.09,7.31,7.31,0,0,1,188.64,85.36Z"/><path class="cls-1" d="M216.92,85.2a1.83,1.83,0,0,1,.32-1,8.65,8.65,0,0,1,.93-1.09,6.48,6.48,0,0,0,.93-1,4.21,4.21,0,0,0,.5-1.19,19.41,19.41,0,0,0,.47-2.3L223,61.17h-.2a7.54,7.54,0,0,0-2.6.36,8.49,8.49,0,0,0-1.6.81,2.27,2.27,0,0,1-.8.44c-.19,0-.28-.13-.28-.4a2.89,2.89,0,0,1,.08-.6,4.66,4.66,0,0,1,2.5-3,10.74,10.74,0,0,1,5.2-1.12,33.36,33.36,0,0,1,3.42.2c2.15.13,3.44.2,3.87.2a13.72,13.72,0,0,0,2.5-.18,12.71,12.71,0,0,0,1.6-.41,3.88,3.88,0,0,1,.9-.22.47.47,0,0,1,.3.08.41.41,0,0,1,.11.33,2.91,2.91,0,0,1-.63,1.55,5.57,5.57,0,0,1-1.83,1.59,5.88,5.88,0,0,1-2.95.68c-.24,0-.79,0-1.65-.08-1.29-.1-2.5-.16-3.63-.16l-1.49,9.11h7.78c.27,0,.41.1.41.29a2.8,2.8,0,0,1-.51,1.19,6.17,6.17,0,0,1-1.23,1.47,2.19,2.19,0,0,1-1.45.64,10,10,0,0,1-1.21-.16,15.91,15.91,0,0,0-3-.36h-1.37L224.1,80.4a3.18,3.18,0,0,1-.93,1.74v0a2.74,2.74,0,0,0,1.61.4,2.94,2.94,0,0,0,1.15-.22,2.46,2.46,0,0,1,.71-.22.32.32,0,0,1,.36.36,1.87,1.87,0,0,1-.52,1.09c-1.08,1.4-2.13,2.09-3.15,2.09a4.55,4.55,0,0,1-1-.12l-.7-.16a6.28,6.28,0,0,0-1.94-.36,4.29,4.29,0,0,0-1.65.32,3.67,3.67,0,0,1-.93.32Q216.92,85.68,216.92,85.2Z"/><path class="cls-1" d="M236.11,85.6a3.46,3.46,0,0,1,.3-.91A10.63,10.63,0,0,0,237,82.5l.68-3.87q1.09-6.21,1.13-7.26V71q0-.69-.36-.69-.76,0-2.1,2.46a3.44,3.44,0,0,1-.36.59.55.55,0,0,1-.4.26c-.27,0-.41-.23-.41-.69a5.39,5.39,0,0,1,.95-2.6,10.79,10.79,0,0,1,2.34-2.7,4.32,4.32,0,0,1,2.68-1.15c1.16,0,1.73.77,1.73,2.3,0,.32-.1,1.45-.32,3.39h0a17.41,17.41,0,0,1,3.21-4.34,4.57,4.57,0,0,1,3-1.35,2.38,2.38,0,0,1,1.69.61,2.25,2.25,0,0,1,.65,1.73,5,5,0,0,1-.5,2.14,5.61,5.61,0,0,1-1.23,1.71,2,2,0,0,1-1.25.67c-.22,0-.29-.14-.21-.41a5,5,0,0,0,.13-1q0-1.05-.93-1.05c-1,0-2,.7-3,2.09a16.36,16.36,0,0,0-2.35,6c-.41,1.67-.68,3-.81,3.91a3.65,3.65,0,0,1-1.59,2.16,4.53,4.53,0,0,1-2.6,1C236.34,86.09,236.11,85.92,236.11,85.6Z"/><path class="cls-1" d="M251,84.84a6.83,6.83,0,0,1-.71-3.35,17.37,17.37,0,0,1,6.09-12.68,9.44,9.44,0,0,1,6.09-2.32,8.5,8.5,0,0,1,2.07.25,6.49,6.49,0,0,1,1.68.6,8.21,8.21,0,0,0-.49,1.45c-.08.38-.13.62-.16.73-.19,1-.46,2.44-.82,4.41s-.71,3.87-1,5.67a10.42,10.42,0,0,0-.25,1.85,1.11,1.11,0,0,0,.15.65.48.48,0,0,0,.42.2,1.57,1.57,0,0,0,1.25-.83,13.76,13.76,0,0,0,1.21-2.32,1.36,1.36,0,0,1,.2-.4.38.38,0,0,1,.32-.16c.25,0,.36.19.36.56a1.82,1.82,0,0,1,0,.45,8.46,8.46,0,0,1-1,3,8.33,8.33,0,0,1-2.08,2.48,4.08,4.08,0,0,1-2.52,1,1.94,1.94,0,0,1-1.63-.77,3.31,3.31,0,0,1-.58-2.06,8.85,8.85,0,0,1,.07-1l.21-1.37h-.08a15.08,15.08,0,0,1-3.41,3.71A5.93,5.93,0,0,1,253,86.09,2.17,2.17,0,0,1,251,84.84Zm6.53-4.32a18.69,18.69,0,0,0,2.6-4,17.07,17.07,0,0,0,1.61-4.78L262,70.2a3.68,3.68,0,0,0-1.85-.6,3.55,3.55,0,0,0-2.6,1.59,12.61,12.61,0,0,0-2.14,4.11,16.45,16.45,0,0,0-.82,5.14,3.83,3.83,0,0,0,.14,1.31.5.5,0,0,0,.5.35C255.85,82.1,256.61,81.57,257.54,80.52Z"/><path class="cls-1" d="M265.82,100.9A5.56,5.56,0,0,1,264,98.73a6,6,0,0,1-.63-2.61,4.08,4.08,0,0,1,.71-2.41,5.18,5.18,0,0,1,1.55-1.52,3,3,0,0,1,1.21-.5c.14,0,.2.13.2.4a10.16,10.16,0,0,0,.85,4.9,3.19,3.19,0,0,0,3,1.39,4.46,4.46,0,0,0,2.78-.82,7.13,7.13,0,0,0,1.94-2.48,13.15,13.15,0,0,0,1-3q.36-1.75,1.13-6.87c.21-1.34.41-2.33.58-3s.29-1.07.34-1.31h-.08A15.88,15.88,0,0,1,275,84.64a6.06,6.06,0,0,1-3.36,1.45,2.1,2.1,0,0,1-1.9-1.23,6.85,6.85,0,0,1-.68-3.29,15.58,15.58,0,0,1,1.73-6.87,17.14,17.14,0,0,1,4.64-5.87,9.7,9.7,0,0,1,6.21-2.34,8.34,8.34,0,0,1,2.05.25,7.44,7.44,0,0,1,1.7.6l-.65,2.18a71.34,71.34,0,0,0-2.36,10q-.37,3.19-.42,3.51-.6,4.28-1.13,6.63a18.83,18.83,0,0,1-1.23,3.87,15.76,15.76,0,0,1-1.91,3,15.6,15.6,0,0,1-4.4,3.91,9,9,0,0,1-4.39,1.29A5.2,5.2,0,0,1,265.82,100.9Zm10.41-20.38a19.05,19.05,0,0,0,2.57-4,16.79,16.79,0,0,0,1.62-4.78l.28-1.57a3.61,3.61,0,0,0-1.9-.6,3.42,3.42,0,0,0-2.55,1.59,13,13,0,0,0-2.1,4.11,16.46,16.46,0,0,0-.83,5.14,4.65,4.65,0,0,0,.12,1.31.51.51,0,0,0,.53.35C274.56,82.1,275.31,81.57,276.23,80.52Z"/><path class="cls-1" d="M287.63,85.6a3.26,3.26,0,0,1,.31-.91,11.46,11.46,0,0,0,.58-2.19l.69-3.87c.72-4.14,1.1-6.56,1.12-7.26V71q0-.69-.36-.69c-.51,0-1.21.82-2.09,2.46a3.47,3.47,0,0,1-.37.59.55.55,0,0,1-.4.26c-.27,0-.4-.23-.4-.69a5.36,5.36,0,0,1,.94-2.6,10.79,10.79,0,0,1,2.34-2.7,4.32,4.32,0,0,1,2.68-1.15c1.16,0,1.74.77,1.74,2.3q0,.48-.33,3.39h0a17.41,17.41,0,0,1,3.21-4.34,4.59,4.59,0,0,1,3-1.35,2.41,2.41,0,0,1,1.7.61,2.29,2.29,0,0,1,.64,1.73,5,5,0,0,1-.5,2.14A5.61,5.61,0,0,1,301,72.68a2,2,0,0,1-1.25.67c-.22,0-.29-.14-.2-.41a5,5,0,0,0,.12-1q0-1.05-.93-1.05c-1,0-2,.7-3,2.09a16.19,16.19,0,0,0-2.36,6c-.4,1.67-.68,3-.81,3.91a3.61,3.61,0,0,1-1.59,2.16,4.5,4.5,0,0,1-2.6,1C287.86,86.09,287.63,85.92,287.63,85.6Z"/><path class="cls-1" d="M302.53,84.84a6.83,6.83,0,0,1-.71-3.35,16.12,16.12,0,0,1,1.64-6.85,16.4,16.4,0,0,1,4.45-5.83A9.44,9.44,0,0,1,314,66.49a8.5,8.5,0,0,1,2.07.25,6.49,6.49,0,0,1,1.68.6,9.13,9.13,0,0,0-.49,1.45c-.08.38-.13.62-.16.73-.19,1-.46,2.44-.82,4.41s-.71,3.87-1,5.67a10.21,10.21,0,0,0-.24,1.85,1.12,1.12,0,0,0,.14.65.48.48,0,0,0,.42.2,1.57,1.57,0,0,0,1.25-.83A13.76,13.76,0,0,0,318,79.15a1.36,1.36,0,0,1,.2-.4.38.38,0,0,1,.32-.16c.25,0,.37.19.37.56a2.48,2.48,0,0,1,0,.45,8.68,8.68,0,0,1-1.05,3,8.33,8.33,0,0,1-2.08,2.48,4.08,4.08,0,0,1-2.52,1,1.94,1.94,0,0,1-1.63-.77,3.31,3.31,0,0,1-.58-2.06,7.23,7.23,0,0,1,.08-1l.2-1.37h-.08a15.08,15.08,0,0,1-3.41,3.71,5.9,5.9,0,0,1-3.33,1.45A2.17,2.17,0,0,1,302.53,84.84Zm6.53-4.32a18.69,18.69,0,0,0,2.6-4,16.76,16.76,0,0,0,1.61-4.78l.28-1.57a3.65,3.65,0,0,0-1.85-.6,3.55,3.55,0,0,0-2.6,1.59A12.61,12.61,0,0,0,307,75.3a16.45,16.45,0,0,0-.82,5.14,3.83,3.83,0,0,0,.14,1.31.5.5,0,0,0,.5.35C307.37,82.1,308.13,81.57,309.06,80.52Z"/><path class="cls-1" d="M321.78,85.64a4.92,4.92,0,0,1,.2-.84,20.48,20.48,0,0,0,.57-2c.18-.78.45-2.19.8-4.23s.67-4,1-6a15.55,15.55,0,0,0,.2-1.65c0-.41-.12-.61-.36-.61s-.55.21-.93.63A9.46,9.46,0,0,0,322,72.78a4.2,4.2,0,0,1-.36.59.57.57,0,0,1-.4.26c-.27,0-.41-.23-.41-.69a5.41,5.41,0,0,1,.95-2.64,10.36,10.36,0,0,1,2.34-2.68,4.32,4.32,0,0,1,2.68-1.13,1.6,1.6,0,0,1,1.29.57,2.68,2.68,0,0,1,.48,1.77,23.55,23.55,0,0,1-.32,3.59h0q4.32-5.92,7.26-5.93c1.37,0,2.05,1,2.05,2.87a16.19,16.19,0,0,1-.36,3.06c-.64,3.14-1.09,5.37-1.33,6.67a21,21,0,0,0-.36,2.36c0,.56.16.85.48.85.75,0,1.52-1,2.3-3.15.16-.37.33-.56.52-.56s.46.33.41,1a7.7,7.7,0,0,1-1,2.94,8.62,8.62,0,0,1-2.2,2.54,4.31,4.31,0,0,1-2.64,1c-1.32,0-2-.89-2-2.66a16.33,16.33,0,0,1,.24-2.54c.16-1,.4-2.28.72-3.83.22-1,.41-2.1.59-3.15a23.34,23.34,0,0,0,.3-2.54v-.32c0-.43-.14-.65-.4-.65-.46,0-1.09.48-1.9,1.44a18.56,18.56,0,0,0-2.28,3.56,17,17,0,0,0-1.47,4.11l-.64,3.27A4,4,0,0,1,325,85a4.21,4.21,0,0,1-2.6,1C322,86.09,321.78,85.94,321.78,85.64Z"/><path class="cls-1" d="M342.2,84.62a6.36,6.36,0,0,1-1.15-4,14.82,14.82,0,0,1,1.59-6.39,16.69,16.69,0,0,1,4.16-5.52,8.05,8.05,0,0,1,5.26-2.2,3.66,3.66,0,0,1,2,.51,1.52,1.52,0,0,1,.79,1.35,4.47,4.47,0,0,1-.69,1.85c-.21.38-.44.57-.68.57a.61.61,0,0,1-.49-.25,3.38,3.38,0,0,0-2.45-1.08,3.82,3.82,0,0,0-2.69,1.12A7.57,7.57,0,0,0,346,73.65a13.59,13.59,0,0,0-.67,4.37,6.49,6.49,0,0,0,.59,3.17,2,2,0,0,0,1.87,1q2.15,0,3.79-3a2.48,2.48,0,0,1,.34-.58.46.46,0,0,1,.35-.14c.27,0,.4.24.4.72a5.51,5.51,0,0,1-1.09,3,9.82,9.82,0,0,1-2.8,2.76,6.28,6.28,0,0,1-3.49,1.13A3.76,3.76,0,0,1,342.2,84.62Z"/><path class="cls-1" d="M356.47,84.66a6.16,6.16,0,0,1-1.19-4,15.12,15.12,0,0,1,1.55-6.35,17.9,17.9,0,0,1,3.95-5.56,7.15,7.15,0,0,1,4.82-2.24,2.92,2.92,0,0,1,2.12.77,3,3,0,0,1,.78,2.22,7.16,7.16,0,0,1-1.17,3.73,13.7,13.7,0,0,1-3.2,3.54,17.55,17.55,0,0,1-4.58,2.64q.12,2.79,2.46,2.79a4.15,4.15,0,0,0,2.44-.81,7.66,7.66,0,0,0,2-2.18,2.78,2.78,0,0,1,.36-.54.46.46,0,0,1,.32-.18.31.31,0,0,1,.32.16,1.24,1.24,0,0,1,.09.56,5.45,5.45,0,0,1-1.15,3,10.35,10.35,0,0,1-3,2.8,6.89,6.89,0,0,1-3.71,1.15A4,4,0,0,1,356.47,84.66Zm5.91-9.2a5.2,5.2,0,0,0,1.53-1.63,4.19,4.19,0,0,0,.6-2.18c0-1-.39-1.45-1.17-1.45a2.8,2.8,0,0,0-2.25,1.57,9.6,9.6,0,0,0-1.3,4.2,1.87,1.87,0,0,0,.77.12A3.25,3.25,0,0,0,362.38,75.46Z"/><path class="cls-1" d="M370.88,85.6a3.4,3.4,0,0,1-1.31-1.15,2.61,2.61,0,0,1-.46-1.23,2.19,2.19,0,0,1,.36-1.51,5.4,5.4,0,0,1,1.33-1.43,1.59,1.59,0,0,1,.73-.4.41.41,0,0,1,.3.18,2.43,2.43,0,0,1,.26.46,6.17,6.17,0,0,0,1,1.9,2.17,2.17,0,0,0,1.77.72,2.36,2.36,0,0,0,1.59-.52,1.7,1.7,0,0,0,.63-1.37,3.05,3.05,0,0,0-.36-1.27,21.54,21.54,0,0,0-1.33-2.2l-.85-1.21a21.47,21.47,0,0,1-1.47-2.4,3.51,3.51,0,0,1-.38-1.59,5.33,5.33,0,0,1,.94-3,6.84,6.84,0,0,1,2.5-2.24,7,7,0,0,1,3.33-.83,5,5,0,0,1,2.62.63,1.87,1.87,0,0,1,1.05,1.67,3.08,3.08,0,0,1-.69,1.73c-.35.44-.63.65-.85.65a.36.36,0,0,1-.24-.08,2.7,2.7,0,0,1-.18-.22l-.18-.26a2.83,2.83,0,0,0-2.42-1.34,2.56,2.56,0,0,0-1.57.45A1.46,1.46,0,0,0,376.4,71a2.21,2.21,0,0,0,.33,1.15,12.26,12.26,0,0,0,1,1.39l.68.89.93,1.2a9.56,9.56,0,0,1,1.17,2,5,5,0,0,1,.36,1.91,5.32,5.32,0,0,1-1.23,3.45,8.24,8.24,0,0,1-3.06,2.34,8.57,8.57,0,0,1-3.49.83A4.61,4.61,0,0,1,370.88,85.6Z"/><path class="cls-1" d="M13.34,118.3a1.63,1.63,0,0,0,.82,1.59,1,1,0,0,0,.37.11.62.62,0,0,1,0,.13,4,4,0,0,1-.41,1.26A11,11,0,0,0,12.81,126a17.53,17.53,0,0,0,.55,4.68s0,0,0,.06a3.62,3.62,0,0,1-1-.3,8.22,8.22,0,0,1-1.4-.68,9.16,9.16,0,0,1-.88-.61A.23.23,0,0,0,10,129a16.75,16.75,0,0,1-2.44-2.54,8.6,8.6,0,0,1-1.18-1.57,1.44,1.44,0,0,0,.33-.32,1.38,1.38,0,0,0-.13-1.94,1.43,1.43,0,0,0-2,0A1.59,1.59,0,0,0,4.1,124a1.76,1.76,0,0,0,1,1.09,1,1,0,0,0,.85-.12,6,6,0,0,0,1.2,1.66,24.13,24.13,0,0,0,2,2.16c-.52-.17-1-.4-1.55-.6a9.3,9.3,0,0,1-1.33-.69.64.64,0,0,0,0-.23,1.46,1.46,0,0,0-.69-1.29c-.79-.35-1.65.48-1.72,1.25-.2,1.09.83,1.6,1.69,1,.13-.12.4-.21.39-.43.1.1.23.16.34.25a10.22,10.22,0,0,0,3,1.23,3.18,3.18,0,0,0,.43.06,9.15,9.15,0,0,0,1.65,1.07,6.5,6.5,0,0,0,2.09.67,15.16,15.16,0,0,0,1.25,2.68,13.51,13.51,0,0,0,.92,1.44c-.52-.35-1.05-.7-1.6-1a27.49,27.49,0,0,0-5.18-2,19.46,19.46,0,0,0-4-.46c-1.58,0-3.15.16-4.73.12a.25.25,0,0,0-.19.3.27.27,0,0,0,.1.17,11.33,11.33,0,0,0,2.08,1c.68.27,1.36.57,2,.85a23.31,23.31,0,0,0,5.49,1.46,36.73,36.73,0,0,0,3.78.43,12.93,12.93,0,0,1,2.79.38,8.45,8.45,0,0,1,2.21,1.4c.8.62,1.55,1.3,2.38,1.88,1.12.8,2.27,1.56,3.44,2.28-.48,0-1-.09-1.46-.11-1.45-.05-2.88-.27-4.33-.24H17.41c0-.09-.08-.15-.16-.2a4.48,4.48,0,0,0-.58-.29,11.49,11.49,0,0,0-1.45-.62c-.55-.16-1.12-.28-1.68-.4a10.17,10.17,0,0,0-4.9-.14,1.1,1.1,0,0,0-.38-.47,1.77,1.77,0,0,0-2.57.39,1.56,1.56,0,0,0,.59,2.17,2.09,2.09,0,0,0,.37.17,1.14,1.14,0,0,0-.09.42c-.07,1.35,2,2.19,3,1.31a1.39,1.39,0,0,0,.29-1.37,10.91,10.91,0,0,1,2.12-.35,24.47,24.47,0,0,1,2.56-.18l.93,0a24.78,24.78,0,0,0-3,2,15.8,15.8,0,0,0-2.19,2l0,0a1.37,1.37,0,0,0-1.45-.47,1.28,1.28,0,0,0-.87,1.68c.45.93,2.28.89,2.45-.23a1.36,1.36,0,0,0,.06-.69.18.18,0,0,0,.08-.07,24.62,24.62,0,0,1,3.12-2.55,15.66,15.66,0,0,1,2.5-1.61.19.19,0,0,0,.07-.11c1.4,0,2.8,0,4.2.08s2.71.15,4.06.23a2.69,2.69,0,0,1,.57.07.11.11,0,0,0,.08,0c1.55.94,3.14,1.83,4.73,2.71,3.22,1.76,6.55,3.32,9.88,4.88l0,0h0l.34.16a36.09,36.09,0,0,1-3.53-1,23.88,23.88,0,0,0-3.91-.92c-1.4-.25-2.79-.52-4.2-.65a28.65,28.65,0,0,0-10.66,1,21,21,0,0,0-2.54,1c-.15.09-.38.11-.46.28s.24.27.42.23a4.93,4.93,0,0,1,.55,0,15.32,15.32,0,0,1,2.14.18c1.33.19,2.66.36,4,.43a45.69,45.69,0,0,1,5.85.33c2.27.24,4.56.31,6.84.44a26.08,26.08,0,0,0,5.15.08,23.89,23.89,0,0,0,2.68-.31c2.55,1.2,5.12,2.37,7.73,3.44,1.13.46,2.31.79,3.45,1.19l1,.38c-.73.11-1.45.32-2.17.45a44,44,0,0,0-7,2.2.25.25,0,0,0-.12,0l-.78-.08a22,22,0,0,0-3.89-.09,5.68,5.68,0,0,0-1.11.14,1.11,1.11,0,0,0-2-.24,1.51,1.51,0,0,0-.13.29s0,0,0,.06c-.6,1.46,1.59,1.9,2.16.7a.86.86,0,0,0,.1-.41l.39,0c1.06,0,2.12,0,3.17-.05.5,0,1,0,1.48.07l-.12,0a31.27,31.27,0,0,0-5.15,2.8l0,0a1.4,1.4,0,0,0-1.1-.39c-1.31.14-1.9,2.15-.66,2.81a1.43,1.43,0,0,0,2.19-.52,1.68,1.68,0,0,0-.14-1.54,1.79,1.79,0,0,1,.22-.13,36.27,36.27,0,0,1,9.45-4.33c1.37-.39,2.75-.77,4.14-1.07a16.65,16.65,0,0,1,2-.41,36.14,36.14,0,0,0,3.8,1.29,9.12,9.12,0,0,0,1.44.34.29.29,0,0,0,.31-.22c0-.14-.11-.25-.24-.26a2.62,2.62,0,0,1-.38-.09l-1.43-.47,0-.05a12.76,12.76,0,0,1-1-1.79c-.43-1-.78-2-1.23-2.92s-1-2-1.53-3a13.42,13.42,0,0,0-3.58-4.07,11.14,11.14,0,0,0-6.14-2.66c-.2-.05-.4,0-.39.26s.29.4.44.6a21.72,21.72,0,0,0,2.29,2.31c.92.8,1.76,1.67,2.6,2.54,2.27,2.49,4.33,5.15,6.43,7.78a2.16,2.16,0,0,0,.36.38c-1.07-.41-2.14-.84-3.22-1.21-1.29-.43-2.59-.8-3.85-1.31-2.52-1.05-5-2.18-7.48-3.35-.09-.16-.19-.32-.28-.49-.3-.53-.58-1.06-.84-1.61a20.61,20.61,0,0,1-1-2.54c-.22-.63-.46-1.25-.64-1.89a32,32,0,0,1-.69-3.64,13.48,13.48,0,0,1-.34-2c0-.72.33-.75.7-1.26a2.42,2.42,0,0,0-.81-3.28,1.91,1.91,0,0,0-1.68,0,2,2,0,0,0-1.29,2c0,.62,0,1.4.6,1.8a2.43,2.43,0,0,0,1.9.31c.13.88.27,1.76.41,2.64s.2,1.65.39,2.46a32.24,32.24,0,0,0,1.73,5,22.84,22.84,0,0,0,1.17,2.18l-1.37-.65-.93-.43a12,12,0,0,1-1-1.27c-.77-1.28-1.57-2.55-2.35-3.83-.27-.45-.49-.92-.75-1.38a.35.35,0,0,0-.16-.18.2.2,0,0,0-.15,0,1,1,0,0,0,.17-.18.6.6,0,0,0,.09-.13s0,0,.05,0a1.69,1.69,0,0,0,.33-.53,1.94,1.94,0,0,0-.63-2.31,1.91,1.91,0,0,0-1.88.12c-1.1.71-1.29,2.55.09,3.07.5.14,1.24.4,1.71.06a.26.26,0,0,0,0,.09c0,.09,0,.16.07.23a19.72,19.72,0,0,0,1.52,2.78,36.53,36.53,0,0,0,2,3.06c-1.91-.89-3.82-1.77-5.69-2.73-1.08-.54-2.15-1.1-3.2-1.68a10.78,10.78,0,0,1-.68-1.61,18.91,18.91,0,0,1-.53-2.46,70.68,70.68,0,0,0-1.69-7A21.44,21.44,0,0,0,25.08,130a15.07,15.07,0,0,0-2.16-2.74,30.13,30.13,0,0,0-3.33-3c-.3-.22-.47.11-.29.34a22,22,0,0,1,1.09,2.72c.76,1.84,1.28,3.77,2.06,5.61.77,1.58,1.56,3.16,2.4,4.71q.91,1.58,1.92,3.09c.42.58.87,1.13,1.3,1.7.15.22.34.41.49.62a.21.21,0,0,0,.13.07c0,.1.18.47.35.84-1.05-.58-2.09-1.17-3.12-1.79a48.16,48.16,0,0,1-6.61-4.51c-.77-.63-1.58-1.19-2.4-1.74l-.2-.14c-.22-.29-.44-.59-.65-.89a18.17,18.17,0,0,1-2.15-4.46c-.32-1.07-.6-2,.18-2.91a8.91,8.91,0,0,1,2.64-2.09c.18.83,1,1.46,1.78.78a1.26,1.26,0,0,0,0-1.75c-.51-.44-1.08.09-1.46.36-.56.38-1.23.55-1.78,1-.37.28-1.84,1.33-1.8,1.86a14.14,14.14,0,0,1,0-2.52,8.7,8.7,0,0,1,.7-2.5c.26-.64.46-1.28.67-1.93a3.83,3.83,0,0,1,.35-1c.16-.23.45-.31.6-.58a1.24,1.24,0,0,0-.9-1.81A1.44,1.44,0,0,0,13.34,118.3Zm0,23.43a15.48,15.48,0,0,0-3.66.53,1.76,1.76,0,0,0-1-.91h-.1a1.71,1.71,0,0,0,0-.78.58.58,0,0,0,.07-.21,10.34,10.34,0,0,1,4.18.11,16.57,16.57,0,0,1,2.94.71c.36.16.72.31,1.08.48C15.71,141.66,14.54,141.69,13.37,141.73Z"/><path class="cls-1" d="M145.23,117.38a1.25,1.25,0,0,0-.9,1.81c.15.27.45.35.61.58a4.21,4.21,0,0,1,.34,1c.21.65.42,1.29.67,1.93a9.05,9.05,0,0,1,.71,2.5,14.14,14.14,0,0,1,0,2.52c0-.53-1.43-1.58-1.8-1.86-.54-.4-1.22-.57-1.78-1-.38-.27-.95-.8-1.46-.36a1.26,1.26,0,0,0,0,1.75c.78.68,1.6,0,1.78-.78a8.91,8.91,0,0,1,2.64,2.09c.78.91.5,1.84.18,2.91A17.82,17.82,0,0,1,144,135c-.2.3-.43.6-.65.89l-.2.14a29.15,29.15,0,0,0-2.39,1.74,48.88,48.88,0,0,1-6.62,4.51c-1,.62-2.07,1.21-3.11,1.79.16-.37.3-.74.34-.84a.21.21,0,0,0,.13-.07c.16-.21.34-.4.5-.62.42-.57.87-1.12,1.29-1.7.68-1,1.31-2,1.92-3.09.84-1.55,1.63-3.13,2.4-4.71.78-1.84,1.3-3.77,2.06-5.61a20.63,20.63,0,0,1,1.1-2.72c.17-.23,0-.56-.3-.34a30.13,30.13,0,0,0-3.33,3A15,15,0,0,0,135,130a20.65,20.65,0,0,0-1.75,3.28,70.68,70.68,0,0,0-1.69,7,18.91,18.91,0,0,1-.53,2.46,11.89,11.89,0,0,1-.67,1.61c-1.06.58-2.13,1.14-3.2,1.68-1.88,1-3.79,1.84-5.7,2.73.75-1,1.35-2,2-3.06A19.66,19.66,0,0,0,125,143a.32.32,0,0,0,.07-.23.16.16,0,0,0,0-.09c.47.34,1.21.08,1.71-.06,1.38-.52,1.2-2.36.09-3.07a1.7,1.7,0,0,0-2.5,2.19,1.39,1.39,0,0,0,.33.53s0,0,0,0a.6.6,0,0,0,.09.13,1.45,1.45,0,0,0,.17.18.17.17,0,0,0-.14,0,.33.33,0,0,0-.17.18c-.25.46-.48.93-.75,1.38-.78,1.28-1.58,2.55-2.35,3.83a12,12,0,0,1-1,1.27l-.93.43-1.37.65c.42-.71.83-1.43,1.18-2.18a33.27,33.27,0,0,0,1.72-5c.19-.81.28-1.64.39-2.46s.29-1.76.42-2.64a2.44,2.44,0,0,0,1.9-.31c.55-.4.56-1.18.6-1.8a2,2,0,0,0-1.3-2,1.91,1.91,0,0,0-1.68,0,2.42,2.42,0,0,0-.81,3.28c.37.51.71.54.71,1.26a14.94,14.94,0,0,1-.35,2,32,32,0,0,1-.69,3.64c-.18.64-.42,1.26-.64,1.89a19.13,19.13,0,0,1-1,2.54c-.26.55-.54,1.08-.83,1.61l-.29.49c-2.47,1.17-5,2.3-7.48,3.35-1.26.51-2.56.88-3.84,1.31-1.09.37-2.15.8-3.23,1.21a1.85,1.85,0,0,0,.36-.38c2.1-2.63,4.16-5.29,6.43-7.78.85-.87,1.68-1.74,2.6-2.54a20.81,20.81,0,0,0,2.29-2.31c.15-.2.39-.35.44-.6s-.19-.31-.39-.26a11.18,11.18,0,0,0-6.14,2.66,13.42,13.42,0,0,0-3.58,4.07c-.53,1-1.06,2-1.53,3s-.79,2-1.22,2.92a13.9,13.9,0,0,1-1,1.79l0,.05-1.43.47a2.62,2.62,0,0,1-.38.09c-.13,0-.27.12-.24.26a.29.29,0,0,0,.31.22,9.12,9.12,0,0,0,1.44-.34,36.14,36.14,0,0,0,3.8-1.29,16.24,16.24,0,0,1,2,.41c1.4.3,2.77.68,4.14,1.07a36.27,36.27,0,0,1,9.45,4.33,1.79,1.79,0,0,1,.22.13,1.68,1.68,0,0,0-.14,1.54,1.43,1.43,0,0,0,2.19.52c1.24-.66.65-2.67-.66-2.81a1.4,1.4,0,0,0-1.1.39l0,0a31.27,31.27,0,0,0-5.15-2.8l-.12,0c.49,0,1-.06,1.48-.07,1.06,0,2.11,0,3.17.05l.39,0a1,1,0,0,0,.1.41c.57,1.2,2.76.76,2.17-.7,0,0,0,0-.06-.06a1.48,1.48,0,0,0-.12-.29,1.19,1.19,0,0,0-1.09-.54,1.16,1.16,0,0,0-.94.78,5.68,5.68,0,0,0-1.11-.14,22,22,0,0,0-3.89.09l-.78.08a.25.25,0,0,0-.12,0,44,44,0,0,0-7-2.2c-.72-.13-1.44-.34-2.17-.45l1-.38c1.15-.4,2.32-.73,3.45-1.19,2.61-1.07,5.18-2.24,7.73-3.44a23.89,23.89,0,0,0,2.68.31,26.08,26.08,0,0,0,5.15-.08c2.28-.13,4.57-.2,6.84-.44a45.79,45.79,0,0,1,5.85-.33c1.34-.07,2.66-.24,4-.43a15.45,15.45,0,0,1,2.14-.18,4.93,4.93,0,0,1,.55,0c.18,0,.49,0,.42-.23s-.31-.19-.46-.28a20.41,20.41,0,0,0-2.54-1,28.62,28.62,0,0,0-10.65-1c-1.42.13-2.81.4-4.2.65a23.76,23.76,0,0,0-3.92.92,36.09,36.09,0,0,1-3.53,1l.34-.16h0l.05,0c3.32-1.56,6.65-3.12,9.87-4.88,1.59-.88,3.18-1.77,4.73-2.71a.11.11,0,0,0,.08,0,2.69,2.69,0,0,1,.57-.07c1.35-.08,2.71-.09,4.06-.23s2.8-.09,4.2-.08a.19.19,0,0,0,.07.11,15.75,15.75,0,0,1,2.51,1.61,25.25,25.25,0,0,1,3.11,2.55s.05.06.08.07a1.48,1.48,0,0,0,.06.69c.18,1.12,2,1.16,2.46.23a1.29,1.29,0,0,0-.88-1.68,1.37,1.37,0,0,0-1.45.47s0,0,0,0a15.8,15.8,0,0,0-2.19-2,24,24,0,0,0-3.05-2l.93,0a24.28,24.28,0,0,1,2.56.18,10.67,10.67,0,0,1,2.12.35,1.39,1.39,0,0,0,.29,1.37c1,.88,3.06,0,3-1.31a1.14,1.14,0,0,0-.09-.42,2.09,2.09,0,0,0,.37-.17,1.54,1.54,0,0,0,.59-2.17,1.77,1.77,0,0,0-2.57-.39,1.1,1.1,0,0,0-.38.47,10.17,10.17,0,0,0-4.9.14c-.56.12-1.12.24-1.68.4a10.77,10.77,0,0,0-1.44.62,4.6,4.6,0,0,0-.59.29c-.08.05-.16.11-.16.2h-1.12c-1.45,0-2.88.19-4.33.24-.49,0-1,.06-1.46.11,1.17-.72,2.32-1.48,3.44-2.28.83-.58,1.58-1.26,2.39-1.88a8.24,8.24,0,0,1,2.2-1.4,13,13,0,0,1,2.79-.38,36.73,36.73,0,0,0,3.78-.43,23.19,23.19,0,0,0,5.49-1.46c.68-.28,1.36-.58,2-.85a11.33,11.33,0,0,0,2.08-1,.34.34,0,0,0,.11-.17.27.27,0,0,0-.2-.3c-1.57,0-3.15-.11-4.72-.12a19.47,19.47,0,0,0-4,.46,27.49,27.49,0,0,0-5.18,2c-.55.3-1.08.65-1.6,1a15.39,15.39,0,0,0,.93-1.44,15.86,15.86,0,0,0,1.24-2.68,6.5,6.5,0,0,0,2.09-.67,9.15,9.15,0,0,0,1.65-1.07,3,3,0,0,0,.43-.06,10.22,10.22,0,0,0,3-1.23c.11-.09.24-.15.34-.25,0,.22.26.31.4.43.85.61,1.88.1,1.68-1-.07-.77-.93-1.6-1.72-1.25a1.46,1.46,0,0,0-.69,1.29,1.89,1.89,0,0,0,.05.23,9.3,9.3,0,0,1-1.33.69c-.52.2-1,.43-1.55.6a24.13,24.13,0,0,0,2-2.16,6.21,6.21,0,0,0,1.21-1.66,1,1,0,0,0,.84.12,1.76,1.76,0,0,0,1-1.09,1.59,1.59,0,0,0-.44-1.42,1.43,1.43,0,0,0-2,0,1.4,1.4,0,0,0-.13,1.94,1.44,1.44,0,0,0,.33.32,8.17,8.17,0,0,1-1.18,1.57,15.83,15.83,0,0,1-2.44,2.54.23.23,0,0,0-.2.16,9.16,9.16,0,0,1-.88.61,8.22,8.22,0,0,1-1.4.68,3.62,3.62,0,0,1-1,.3.14.14,0,0,0,0-.06,17.13,17.13,0,0,0,.55-4.68,11,11,0,0,0-1.32-4.57,4,4,0,0,1-.41-1.26s0-.08,0-.13a1.12,1.12,0,0,0,.38-.11,1.63,1.63,0,0,0,.81-1.59A1.44,1.44,0,0,0,145.23,117.38Zm-2,24.27c.36-.17.72-.32,1.08-.48a16.47,16.47,0,0,1,2.95-.71,10.28,10.28,0,0,1,4.17-.11.58.58,0,0,0,.07.21,1.58,1.58,0,0,0,0,.78h-.11a1.71,1.71,0,0,0-1,.91,15.63,15.63,0,0,0-3.66-.53C145.54,141.69,144.37,141.66,143.19,141.65Z"/></svg>