<svg id="Layer_1" data-name="Layer 1" xmlns="http://www.w3.org/2000/svg" viewBox="0 0 416.7 228.04"><defs><style>.cls-1{fill:#fff;}</style></defs><path class="cls-1" d="M119.8,130.38c-.06,12.12-3.15,23.75-8,34.76-3.38,7.58-7.54,14.81-11.35,22.2a5.52,5.52,0,0,1-5.62,3.3c-5.8-.15-11.61-.13-17.39,0A5.45,5.45,0,0,1,72,187.53c-.79-1.43-1.6-2.85-2.41-4.26-1.08-1.87-2.21-3.69-3.23-5.58-.85-1.54-1.6-3.13-2.33-4.73-.91-2-1.85-4-2.72-6l.06-.07c-.36-.74-.7-1.49-1-2.23a.23.23,0,0,1,0-.09l-.11-.26-.09-.21c-13-29.63-8.32-56.08,11-83-2.85,6-6,10-7.69,16.39C55.07,128.36,60,157.16,77.12,184a5.55,5.55,0,0,0,5.32,2.88c4.58-.17,9.18.13,13.74-.17a5.45,5.45,0,0,0,4-2.32c10.38-20,16.45-41.07,14.15-63.93-.18-1.83-.66-3.64-1-5.79-5.4,2.29-11.61,2.3-17.26,1-2.83-.63-5.56-1.66-8.34-2.46-1.68-.48-3.35-1-5-1.48-1.53-.39-2.94-.93-4.81-1.49,2.87.34,5.75.62,8.62,1,4.68.58,9.41,1.62,14.12,1.87,2.73.15,5.8-.36,7.84-2.33,2.22-2.14,1.64-5.38.33-7.84a54.35,54.35,0,0,0-12.5-15.81c-5-4.26-11.66-8.67-18.39-8.91a16,16,0,0,0-2.85.16,7.06,7.06,0,0,0-1.22.25l.31-.49c3.08-5.17,7.13-10.52,7.45-16.76a17.85,17.85,0,0,0-2-9.31C78.37,50,76.86,48,76.22,45.63A12.1,12.1,0,0,1,76.75,38a10.21,10.21,0,0,1,16.07-4c3.36,2.75,3.89,7.33,3,11.35A29.07,29.07,0,0,1,93.15,52a31.24,31.24,0,0,0,1.22-11.23,6.6,6.6,0,0,0-7.88-5.81,6.29,6.29,0,0,0-4.07,3.4c-2.58,5.18,0,11.4,3.09,15.72.19.28,3.62-4.47,3.85-4.9,1.86-3.42,3.31-8.17.77-11.6,0,.08,8.43,4.11-1.81,19.89a19.76,19.76,0,0,0,2.07,2.68c9.68,12.09,18.49,25.87,23.89,40.5.93,2.53,1.77,5.09,2.5,7.68A80.33,80.33,0,0,1,119.8,130.38Z"/><path class="cls-1" d="M70.92,89.71c-5.08,28.4-6,55.65,4.89,83C60.76,145.65,60.33,116.77,70.92,89.71Z"/><path class="cls-1" d="M89.17,110.53c5.3.45,18,2.43,18.17-3.35,3,7.62-12.93,4.79-18.14,3.4C89.16,110.57,89.14,110.46,89.17,110.53Z"/><path class="cls-1" d="M140.76,116.69a2.31,2.31,0,0,1,.44-1.37,6.9,6.9,0,0,1,1.21-1.21,5.43,5.43,0,0,0,1.11-1.09,3.45,3.45,0,0,0,.46-1.37L146.2,96.9a3.08,3.08,0,0,1,.83-1.55,5.58,5.58,0,0,1,1.67-1.29,4.1,4.1,0,0,1,1.93-.51c.43,0,.65.14.65.41a3,3,0,0,1-.36,1,8.61,8.61,0,0,0-.61,2.28l-.6,4.19h3.34a4.58,4.58,0,0,0,2.85-2A6.24,6.24,0,0,0,157,95.85a3.5,3.5,0,0,0-1.25-3,6.48,6.48,0,0,0-3.91-.95A11.27,11.27,0,0,0,146.42,93a14.94,14.94,0,0,0-3.69,2.82,8.67,8.67,0,0,1-.78.77.93.93,0,0,1-.55.2c-.29,0-.44-.18-.44-.52a4.73,4.73,0,0,1,.2-.85,9.05,9.05,0,0,1,2.42-3.25,12.75,12.75,0,0,1,4.25-2.42,16.87,16.87,0,0,1,5.63-.9,10.26,10.26,0,0,1,6.1,1.55A5.23,5.23,0,0,1,161.72,95q0,4.4-4.55,7.1a10.2,10.2,0,0,1,3,2.94,6.5,6.5,0,0,1,1.07,3.59,7,7,0,0,1-1.57,4.45,10.45,10.45,0,0,1-4.06,3.11,12.34,12.34,0,0,1-5.1,1.11,37.55,37.55,0,0,1-3.79-.36c-1.34-.17-2.19-.25-2.53-.25a8.56,8.56,0,0,0-2.18.41,3.4,3.4,0,0,1-.89.2C140.89,117.26,140.76,117.07,140.76,116.69Zm14.43-4a3.72,3.72,0,0,0,1.41-3.16,5.51,5.51,0,0,0-3.22-5h-4.2l-1,7a4.73,4.73,0,0,1-.23,1.07,3.2,3.2,0,0,1-.42.79l0,0a11.9,11.9,0,0,0,1.59.28,16.75,16.75,0,0,0,1.92.12A6.74,6.74,0,0,0,155.19,112.68Z"/><path class="cls-1" d="M165.13,116a6.19,6.19,0,0,1-1.72-4.62,10.2,10.2,0,0,1,1.88-5.82,16.45,16.45,0,0,1,5.34-4.82,18.77,18.77,0,0,1-.69-4.19,8,8,0,0,1,.95-3.85,7.38,7.38,0,0,1,2.58-2.79,6.68,6.68,0,0,1,3.61-1,4.33,4.33,0,0,1,2.92.92,3.46,3.46,0,0,1,1.07,2.75,6.56,6.56,0,0,1-1.53,4,20.65,20.65,0,0,1-4.68,4.11,10.24,10.24,0,0,0,.61,1.93,8.76,8.76,0,0,1,3.14-1.61,18.25,18.25,0,0,1,4.68-.48l3.34,0a5.94,5.94,0,0,0,3.11-.67,2.86,2.86,0,0,0,1.09-2.64,3.61,3.61,0,0,0-.18-1.29,3.07,3.07,0,0,0-.43-.74.93.93,0,0,1-.24-.47,2.17,2.17,0,0,1,.57-1.13,7.75,7.75,0,0,1,1.27-1.29,2.11,2.11,0,0,1,1.1-.56.56.56,0,0,1,.41.24,3.86,3.86,0,0,1,.56,1.35,8.25,8.25,0,0,1,.16,1.76,7.87,7.87,0,0,1-1.27,4.43,8.51,8.51,0,0,1-3.58,3,12.18,12.18,0,0,1-5.31,1.11h-.2a19.78,19.78,0,0,1-4.27,8.27,9.12,9.12,0,0,0,1.11,1.67,1.29,1.29,0,0,0,.95.5c.64,0,1.38-.51,2.21-1.53.3-.4.54-.6.73-.6s.28.18.28.56a2.6,2.6,0,0,1,0,.53,6.09,6.09,0,0,1-1.71,3.14,4.12,4.12,0,0,1-2.93,1.41q-1.77,0-3.54-2.66a11.13,11.13,0,0,1-6.9,2.66A6.11,6.11,0,0,1,165.13,116Zm8.46-1.64a8.06,8.06,0,0,0,1.88-1.2c-.89-1.8-1.65-3.47-2.28-5s-1.27-3.29-1.91-5.31a8.7,8.7,0,0,0-2.44,3,8.84,8.84,0,0,0-.87,4,6.05,6.05,0,0,0,.95,3.63,3.21,3.21,0,0,0,2.76,1.29A4.62,4.62,0,0,0,173.59,114.35Zm3.69-20.55a3.54,3.54,0,0,0-.46-1.84,1.47,1.47,0,0,0-2.66.12,5.63,5.63,0,0,0-.47,2.52,18.39,18.39,0,0,0,.57,4Q177.28,96.33,177.28,93.8Zm2.28,12.55a15.62,15.62,0,0,0,.71-2.76h-.21a6.11,6.11,0,0,0-3.83,1,26.82,26.82,0,0,0,1.5,3.83,4.71,4.71,0,0,0,.26.6,3.34,3.34,0,0,1,.22.57A25,25,0,0,0,179.56,106.35Z"/><path class="cls-1" d="M194.84,116.94a5.83,5.83,0,0,1-2.18-1.8,4.2,4.2,0,0,1-.82-2.12,5,5,0,0,1,.58-2.19,8.05,8.05,0,0,1,1.39-2c.54-.56.95-.84,1.25-.84.13,0,.23.16.28.48a31.29,31.29,0,0,0,.67,3.73,3.69,3.69,0,0,0,1.13,1.93,3.54,3.54,0,0,0,2.36.67,4.41,4.41,0,0,0,3.28-1.13,4.18,4.18,0,0,0,1.11-3.07,5,5,0,0,0-.48-2.25,15.9,15.9,0,0,0-1.74-2.54l-3.83-4.52a7,7,0,0,1-1.23-2,5.74,5.74,0,0,1-.34-2,8.33,8.33,0,0,1,1-4,8.14,8.14,0,0,1,3.08-3.14,9.32,9.32,0,0,1,4.86-1.21,6.57,6.57,0,0,1,3.73.92,3,3,0,0,1,1.35,2.62,4.87,4.87,0,0,1-.2,1.36,5.09,5.09,0,0,1-.53,1.18,4.15,4.15,0,0,1-.78,1,1.15,1.15,0,0,1-.75.28.58.58,0,0,1-.6-.38,3.79,3.79,0,0,1-.24-1.07,4.07,4.07,0,0,0-.83-2.36,3.07,3.07,0,0,0-2.44-.82,4.08,4.08,0,0,0-2.82.9,3.06,3.06,0,0,0-1,2.36,3.7,3.7,0,0,0,.32,1.55,6.65,6.65,0,0,0,1,1.52l3.87,4.43a12,12,0,0,1,2.06,3,7.48,7.48,0,0,1,.64,3.07,8.36,8.36,0,0,1-1.37,4.56,10.11,10.11,0,0,1-3.65,3.4,9.7,9.7,0,0,1-4.81,1.27A7.41,7.41,0,0,1,194.84,116.94Z"/><path class="cls-1" d="M223.12,116.77a1.82,1.82,0,0,1,.32-1,7.44,7.44,0,0,1,.93-1.09,6.93,6.93,0,0,0,.93-1,4.71,4.71,0,0,0,.5-1.19,19.38,19.38,0,0,0,.46-2.3l2.91-17.41H229a7.58,7.58,0,0,0-2.6.36,7.84,7.84,0,0,0-1.59.8,2.49,2.49,0,0,1-.8.45c-.19,0-.29-.13-.29-.4a3.76,3.76,0,0,1,.08-.61,4.65,4.65,0,0,1,2.5-2.94,10.76,10.76,0,0,1,5.2-1.13c.94,0,2.09.07,3.43.2,2.15.14,3.44.2,3.87.2a13.72,13.72,0,0,0,2.5-.18,12.22,12.22,0,0,0,1.59-.4,3.54,3.54,0,0,1,.91-.22.45.45,0,0,1,.3.08c.07.05.1.16.1.32a2.93,2.93,0,0,1-.62,1.55,5.29,5.29,0,0,1-1.84,1.59,5.81,5.81,0,0,1-2.94.69c-.24,0-.79,0-1.65-.08-1.29-.11-2.5-.16-3.63-.16L232,102h7.78c.27,0,.4.09.4.28a2.88,2.88,0,0,1-.5,1.19,6.68,6.68,0,0,1-1.23,1.47,2.2,2.2,0,0,1-1.45.65c-.16,0-.57-.06-1.21-.16a15.33,15.33,0,0,0-3-.37h-1.37L230.29,112a3.1,3.1,0,0,1-.92,1.73v0a2.72,2.72,0,0,0,1.61.4,3,3,0,0,0,1.15-.22,2.52,2.52,0,0,1,.7-.22.32.32,0,0,1,.37.36,1.9,1.9,0,0,1-.53,1.09c-1.07,1.4-2.12,2.1-3.14,2.1a4.47,4.47,0,0,1-.95-.12l-.7-.16a6,6,0,0,0-1.94-.37,4.12,4.12,0,0,0-1.65.33,4.18,4.18,0,0,1-.93.32C223.2,117.26,223.12,117.1,223.12,116.77Z"/><path class="cls-1" d="M242.31,117.18a3.25,3.25,0,0,1,.3-.91,11.47,11.47,0,0,0,.59-2.2l.68-3.87c.73-4.14,1.1-6.55,1.13-7.25v-.37c0-.45-.12-.68-.36-.68q-.77,0-2.1,2.46a4.08,4.08,0,0,1-.36.58.54.54,0,0,1-.41.26c-.26,0-.4-.22-.4-.68a5.32,5.32,0,0,1,1-2.6,10.45,10.45,0,0,1,2.34-2.7,4.24,4.24,0,0,1,2.68-1.15c1.15,0,1.73.76,1.73,2.3,0,.32-.11,1.45-.32,3.38h0a17.58,17.58,0,0,1,3.2-4.33,4.61,4.61,0,0,1,3.05-1.35,2.38,2.38,0,0,1,1.69.6,2.28,2.28,0,0,1,.65,1.74,4.8,4.8,0,0,1-.51,2.13,5.45,5.45,0,0,1-1.23,1.72,2,2,0,0,1-1.25.66c-.21,0-.28-.13-.2-.4a5.12,5.12,0,0,0,.12-1q0-1.05-.93-1c-1,0-2,.7-3,2.1a16.3,16.3,0,0,0-2.36,6c-.4,1.67-.67,3-.8,3.92a3.63,3.63,0,0,1-1.6,2.15,4.41,4.41,0,0,1-2.6,1C242.54,117.66,242.31,117.5,242.31,117.18Z"/><path class="cls-1" d="M257.21,116.41a6.7,6.7,0,0,1-.71-3.35,17.23,17.23,0,0,1,6.09-12.67,9.38,9.38,0,0,1,6.08-2.32,9.16,9.16,0,0,1,2.08.24,6.41,6.41,0,0,1,1.67.6,9.32,9.32,0,0,0-.48,1.46c-.08.37-.14.62-.16.72-.19,1-.47,2.44-.83,4.42s-.7,3.86-1,5.66a10.43,10.43,0,0,0-.24,1.85,1.18,1.18,0,0,0,.14.65.51.51,0,0,0,.43.2,1.56,1.56,0,0,0,1.25-.83,14.08,14.08,0,0,0,1.2-2.31,1.57,1.57,0,0,1,.21-.41.39.39,0,0,1,.32-.16q.36,0,.36.57a1.78,1.78,0,0,1,0,.44,8.23,8.23,0,0,1-1.05,3,8,8,0,0,1-2.07,2.48,4,4,0,0,1-2.52,1,1.93,1.93,0,0,1-1.63-.76,3.32,3.32,0,0,1-.59-2.06,9.44,9.44,0,0,1,.08-1l.2-1.37h-.08a14.87,14.87,0,0,1-3.4,3.71,5.86,5.86,0,0,1-3.33,1.45A2.15,2.15,0,0,1,257.21,116.41Zm6.53-4.31a19.08,19.08,0,0,0,2.6-4,17.07,17.07,0,0,0,1.61-4.78l.28-1.57a3.6,3.6,0,0,0-1.85-.61,3.54,3.54,0,0,0-2.6,1.6,12.42,12.42,0,0,0-2.14,4.11,16.41,16.41,0,0,0-.83,5.14,4.15,4.15,0,0,0,.14,1.31.52.52,0,0,0,.51.34C262.05,113.67,262.81,113.15,263.74,112.1Z"/><path class="cls-1" d="M272,132.48a5.51,5.51,0,0,1-1.87-2.18,6,6,0,0,1-.63-2.6,4.12,4.12,0,0,1,.71-2.42,5,5,0,0,1,1.55-1.51,2.9,2.9,0,0,1,1.21-.51c.13,0,.2.14.2.41,0,2.34.28,4,.85,4.9a3.2,3.2,0,0,0,3,1.39,4.46,4.46,0,0,0,2.78-.83,7.15,7.15,0,0,0,1.94-2.48,12.91,12.91,0,0,0,1-3q.36-1.75,1.13-6.88a29.59,29.59,0,0,1,.59-3c.17-.63.29-1.07.34-1.31h-.08a15.68,15.68,0,0,1-3.53,3.71,6,6,0,0,1-3.36,1.45,2.1,2.1,0,0,1-1.9-1.23,6.7,6.7,0,0,1-.68-3.28,15.46,15.46,0,0,1,1.73-6.88,16.89,16.89,0,0,1,4.64-5.86,9.7,9.7,0,0,1,6.2-2.34,8.86,8.86,0,0,1,2.06.24,7.18,7.18,0,0,1,1.69.6l-.64,2.18a70,70,0,0,0-2.36,10q-.39,3.18-.42,3.51c-.41,2.85-.78,5.06-1.13,6.63a19.25,19.25,0,0,1-1.23,3.87,17,17,0,0,1-6.31,7,9,9,0,0,1-4.4,1.29A5.21,5.21,0,0,1,272,132.48Zm10.4-20.38a19.47,19.47,0,0,0,2.58-4,16.76,16.76,0,0,0,1.61-4.78l.29-1.57a3.54,3.54,0,0,0-1.9-.61,3.44,3.44,0,0,0-2.56,1.6,13.18,13.18,0,0,0-2.09,4.11,16.13,16.13,0,0,0-.83,5.14,4.69,4.69,0,0,0,.12,1.31.49.49,0,0,0,.52.34C280.75,113.67,281.51,113.15,282.42,112.1Z"/><path class="cls-1" d="M293.83,117.18a3.25,3.25,0,0,1,.3-.91,11.47,11.47,0,0,0,.59-2.2l.68-3.87c.73-4.14,1.1-6.55,1.13-7.25v-.37c0-.45-.12-.68-.36-.68q-.76,0-2.1,2.46a4.08,4.08,0,0,1-.36.58.52.52,0,0,1-.4.26c-.27,0-.41-.22-.41-.68a5.32,5.32,0,0,1,1-2.6,10.45,10.45,0,0,1,2.34-2.7,4.26,4.26,0,0,1,2.68-1.15c1.16,0,1.73.76,1.73,2.3,0,.32-.11,1.45-.32,3.38h0a17.32,17.32,0,0,1,3.21-4.33,4.57,4.57,0,0,1,3-1.35,2.38,2.38,0,0,1,1.69.6,2.28,2.28,0,0,1,.65,1.74,4.8,4.8,0,0,1-.51,2.13,5.45,5.45,0,0,1-1.23,1.72,2,2,0,0,1-1.24.66c-.22,0-.29-.13-.21-.4a5.12,5.12,0,0,0,.12-1c0-.7-.31-1-.92-1-1,0-2,.7-3.05,2.1a16.14,16.14,0,0,0-2.35,6c-.41,1.67-.68,3-.81,3.92a3.65,3.65,0,0,1-1.59,2.15,4.46,4.46,0,0,1-2.6,1Q293.83,117.66,293.83,117.18Z"/><path class="cls-1" d="M308.73,116.41a6.8,6.8,0,0,1-.71-3.35,17.23,17.23,0,0,1,6.09-12.67,9.38,9.38,0,0,1,6.08-2.32,9.09,9.09,0,0,1,2.08.24,6.41,6.41,0,0,1,1.67.6,9.32,9.32,0,0,0-.48,1.46c-.08.37-.13.62-.16.72-.19,1-.46,2.44-.83,4.42s-.7,3.86-1,5.66a10.43,10.43,0,0,0-.24,1.85,1.09,1.09,0,0,0,.15.65.48.48,0,0,0,.42.2A1.55,1.55,0,0,0,323,113a14.82,14.82,0,0,0,1.21-2.31,1.31,1.31,0,0,1,.2-.41.4.4,0,0,1,.32-.16q.36,0,.36.57a1.78,1.78,0,0,1,0,.44,8.4,8.4,0,0,1-1,3,8.21,8.21,0,0,1-2.08,2.48,4,4,0,0,1-2.52,1,1.93,1.93,0,0,1-1.63-.76,3.32,3.32,0,0,1-.59-2.06,9.44,9.44,0,0,1,.08-1l.2-1.37h-.08a14.87,14.87,0,0,1-3.4,3.71,5.86,5.86,0,0,1-3.33,1.45A2.15,2.15,0,0,1,308.73,116.41Zm6.53-4.31a19.08,19.08,0,0,0,2.6-4,17.07,17.07,0,0,0,1.61-4.78l.28-1.57a3.6,3.6,0,0,0-1.85-.61,3.54,3.54,0,0,0-2.6,1.6,12.42,12.42,0,0,0-2.14,4.11,16.41,16.41,0,0,0-.83,5.14,4.15,4.15,0,0,0,.14,1.31.52.52,0,0,0,.51.34C313.57,113.67,314.33,113.15,315.26,112.1Z"/><path class="cls-1" d="M328,117.22a4.08,4.08,0,0,1,.2-.85,20.47,20.47,0,0,0,.56-2c.19-.77.46-2.19.81-4.23s.67-4,1-6a15.33,15.33,0,0,0,.2-1.66q0-.6-.36-.6c-.25,0-.56.21-.93.62a9.27,9.27,0,0,0-1.21,1.84,4.08,4.08,0,0,1-.36.58.54.54,0,0,1-.41.26c-.27,0-.4-.22-.4-.68a5.25,5.25,0,0,1,.95-2.64,10.2,10.2,0,0,1,2.34-2.68A4.32,4.32,0,0,1,333,98.07a1.65,1.65,0,0,1,1.29.56,2.72,2.72,0,0,1,.48,1.78,23.76,23.76,0,0,1-.32,3.59h0q4.31-5.94,7.26-5.93c1.36,0,2.05,1,2.05,2.86a16.29,16.29,0,0,1-.36,3.07q-1,4.71-1.33,6.67a18.66,18.66,0,0,0-.36,2.35c0,.57.16.85.48.85.75,0,1.52-1.05,2.3-3.14.16-.38.33-.57.52-.57s.46.34.4,1a7.51,7.51,0,0,1-1,2.94,8.64,8.64,0,0,1-2.2,2.54,4.36,4.36,0,0,1-2.64,1c-1.32,0-2-.89-2-2.66a16.33,16.33,0,0,1,.24-2.54c.17-1,.41-2.27.73-3.83.21-1,.41-2.1.58-3.14a21.67,21.67,0,0,0,.31-2.54v-.33c0-.43-.14-.64-.41-.64-.45,0-1.09.48-1.89,1.43a17.73,17.73,0,0,0-2.28,3.57,16.73,16.73,0,0,0-1.47,4.11l-.65,3.26a3.91,3.91,0,0,1-1.55,2.26,4.16,4.16,0,0,1-2.6,1C328.19,117.66,328,117.51,328,117.22Z"/><path class="cls-1" d="M348.4,116.19a6.33,6.33,0,0,1-1.15-4,14.82,14.82,0,0,1,1.59-6.39,16.59,16.59,0,0,1,4.15-5.52,8,8,0,0,1,5.26-2.2,3.78,3.78,0,0,1,2,.5,1.55,1.55,0,0,1,.78,1.35,4.45,4.45,0,0,1-.68,1.86c-.22.37-.44.56-.68.56a.63.63,0,0,1-.49-.24,3.36,3.36,0,0,0-2.46-1.09,3.81,3.81,0,0,0-2.68,1.13,7.46,7.46,0,0,0-1.85,3.08,13.42,13.42,0,0,0-.67,4.38,6.45,6.45,0,0,0,.59,3.16,2,2,0,0,0,1.87,1c1.42,0,2.69-1,3.79-3a2.28,2.28,0,0,1,.34-.59.5.5,0,0,1,.35-.14c.26,0,.4.24.4.73a5.5,5.5,0,0,1-1.09,3,9.82,9.82,0,0,1-2.8,2.76,6.33,6.33,0,0,1-3.49,1.13A3.73,3.73,0,0,1,348.4,116.19Z"/><path class="cls-1" d="M362.67,116.23a6.05,6.05,0,0,1-1.19-4,14.93,14.93,0,0,1,1.55-6.35,17.62,17.62,0,0,1,4-5.56,7.11,7.11,0,0,1,4.82-2.24,2.89,2.89,0,0,1,2.11.76,3,3,0,0,1,.79,2.22,7.16,7.16,0,0,1-1.17,3.73,13.91,13.91,0,0,1-3.2,3.55,17.72,17.72,0,0,1-4.58,2.64c.08,1.85.9,2.78,2.46,2.78a4.17,4.17,0,0,0,2.44-.81,7.73,7.73,0,0,0,2-2.17,3.43,3.43,0,0,1,.37-.55.43.43,0,0,1,.32-.18.33.33,0,0,1,.32.16,1.32,1.32,0,0,1,.08.57,5.32,5.32,0,0,1-1.15,2.94,10.05,10.05,0,0,1-3,2.8,6.84,6.84,0,0,1-3.71,1.15A4,4,0,0,1,362.67,116.23Zm5.9-9.19a5.09,5.09,0,0,0,1.53-1.63,4.13,4.13,0,0,0,.61-2.18c0-1-.39-1.45-1.17-1.45a2.79,2.79,0,0,0-2.26,1.57,9.73,9.73,0,0,0-1.29,4.19,1.84,1.84,0,0,0,.77.12A3.21,3.21,0,0,0,368.57,107Z"/><path class="cls-1" d="M377.08,117.18a3.56,3.56,0,0,1-1.31-1.15,2.79,2.79,0,0,1-.47-1.23,2.13,2.13,0,0,1,.37-1.51,5.1,5.1,0,0,1,1.33-1.43,1.69,1.69,0,0,1,.72-.41.38.38,0,0,1,.3.18,2.08,2.08,0,0,1,.27.47,5.8,5.8,0,0,0,1,1.89,2.15,2.15,0,0,0,1.77.73,2.38,2.38,0,0,0,1.59-.53,1.68,1.68,0,0,0,.63-1.37,2.94,2.94,0,0,0-.37-1.27,19.91,19.91,0,0,0-1.33-2.19l-.84-1.21a24.07,24.07,0,0,1-1.48-2.4,3.71,3.71,0,0,1-.38-1.59,5.35,5.35,0,0,1,.95-3,7,7,0,0,1,5.83-3.06,5.13,5.13,0,0,1,2.62.62,1.91,1.91,0,0,1,1,1.68,3.16,3.16,0,0,1-.68,1.73c-.35.43-.63.65-.85.65a.3.3,0,0,1-.24-.09,1.64,1.64,0,0,1-.18-.22,3.1,3.1,0,0,1-.18-.26,2.83,2.83,0,0,0-2.42-1.33,2.61,2.61,0,0,0-1.57.44,1.46,1.46,0,0,0-.61,1.25,2.24,2.24,0,0,0,.32,1.15,13,13,0,0,0,1,1.39l.69.89.92,1.21a9.52,9.52,0,0,1,1.17,1.95,4.8,4.8,0,0,1,.37,1.92,5.32,5.32,0,0,1-1.23,3.45,8.28,8.28,0,0,1-3.07,2.33,8.49,8.49,0,0,1-3.48.83A4.62,4.62,0,0,1,377.08,117.18Z"/><path class="cls-1" d="M19.54,149.88a1.61,1.61,0,0,0,.81,1.58,1.06,1.06,0,0,0,.38.12.57.57,0,0,1,0,.13,3.73,3.73,0,0,1-.4,1.25A11.09,11.09,0,0,0,19,157.54a17.23,17.23,0,0,0,.55,4.68s0,0,0,.05a3.17,3.17,0,0,1-.95-.29,9,9,0,0,1-1.4-.68,9.25,9.25,0,0,1-.88-.62c0-.09-.1-.13-.21-.16A15.38,15.38,0,0,1,13.71,158a7.87,7.87,0,0,1-1.18-1.57,1.12,1.12,0,0,0,.33-.32,1.38,1.38,0,0,0-.14-1.93,1.41,1.41,0,0,0-2,0,1.55,1.55,0,0,0-.44,1.42,1.78,1.78,0,0,0,1,1.1,1,1,0,0,0,.84-.12,6.55,6.55,0,0,0,1.21,1.66,25.57,25.57,0,0,0,2,2.16c-.53-.17-1-.4-1.55-.6a10,10,0,0,1-1.34-.7.9.9,0,0,0,.06-.22,1.47,1.47,0,0,0-.69-1.29c-.8-.35-1.65.47-1.73,1.25-.19,1.08.84,1.59,1.69,1,.14-.12.41-.2.4-.42a2.93,2.93,0,0,0,.34.24,10,10,0,0,0,3,1.24,3,3,0,0,0,.43.05,8.64,8.64,0,0,0,1.65,1.07,6.27,6.27,0,0,0,2.09.67,15.17,15.17,0,0,0,1.24,2.68,15.54,15.54,0,0,0,.93,1.45c-.52-.36-1.05-.7-1.6-1a27.29,27.29,0,0,0-5.19-2,19.29,19.29,0,0,0-4-.46c-1.57,0-3.15.16-4.72.12a.26.26,0,0,0-.2.3.45.45,0,0,0,.11.17,12,12,0,0,0,2.08,1l2,.85a22.72,22.72,0,0,0,5.49,1.46,36.73,36.73,0,0,0,3.78.43,12.43,12.43,0,0,1,2.79.39,8,8,0,0,1,2.2,1.4c.8.61,1.56,1.29,2.39,1.87,1.12.81,2.27,1.56,3.44,2.29-.49-.06-1-.09-1.46-.12-1.45,0-2.89-.27-4.34-.23H23.61a.24.24,0,0,0-.16-.2,6.54,6.54,0,0,0-.59-.3,10.77,10.77,0,0,0-1.44-.62c-.56-.16-1.12-.27-1.69-.4a10.25,10.25,0,0,0-4.89-.14,1.1,1.1,0,0,0-.38-.47,1.8,1.8,0,0,0-2.58.39,1.55,1.55,0,0,0,.6,2.17,1.24,1.24,0,0,0,.37.17,1.14,1.14,0,0,0-.09.42c-.07,1.35,2,2.2,3,1.32a1.4,1.4,0,0,0,.29-1.37,10.7,10.7,0,0,1,2.11-.36,24.64,24.64,0,0,1,2.57-.17l.92,0a22.59,22.59,0,0,0-3,2,16.38,16.38,0,0,0-2.19,2s0,0,0,0a1.34,1.34,0,0,0-1.44-.47,1.29,1.29,0,0,0-.88,1.68c.46.93,2.28.89,2.45-.23a1.33,1.33,0,0,0,.07-.68l.08-.07a26.27,26.27,0,0,1,3.11-2.56,17.28,17.28,0,0,1,2.51-1.61.2.2,0,0,0,.07-.1c1.4,0,2.8,0,4.2.07s2.71.16,4.06.23a2.8,2.8,0,0,1,.57.08s0,0,.08,0c1.55.94,3.14,1.83,4.73,2.71,3.22,1.76,6.55,3.32,9.87,4.88l0,0h0l.35.16c-1.19-.28-2.37-.58-3.53-1a22.1,22.1,0,0,0-3.92-.92,42.15,42.15,0,0,0-4.2-.65,28.41,28.41,0,0,0-10.65,1,25.19,25.19,0,0,0-2.55,1c-.14.09-.37.12-.45.28s.24.27.42.23.36,0,.54,0a14.08,14.08,0,0,1,2.15.19c1.32.19,2.65.36,4,.42a45.79,45.79,0,0,1,5.85.33c2.27.25,4.56.32,6.84.44a25.32,25.32,0,0,0,5.15.09,26.47,26.47,0,0,0,2.68-.31c2.55,1.2,5.12,2.36,7.73,3.44,1.13.45,2.3.78,3.45,1.18l1.05.39c-.73.1-1.45.31-2.18.45a44.14,44.14,0,0,0-7,2.19h-.13l-.77-.07a21.08,21.08,0,0,0-3.89-.1,5.59,5.59,0,0,0-1.11.14,1.12,1.12,0,0,0-2-.24,1.78,1.78,0,0,0-.12.29s0,0-.06.06c-.6,1.46,1.6,1.9,2.17.7a1,1,0,0,0,.1-.4l.39,0c1,0,2.11,0,3.17-.05.49,0,1,0,1.48.06l-.12.06a31.31,31.31,0,0,0-5.16,2.79l0,0a1.37,1.37,0,0,0-1.1-.39c-1.32.13-1.9,2.15-.66,2.81a1.43,1.43,0,0,0,2.19-.53,1.69,1.69,0,0,0-.14-1.53L46,194a36.46,36.46,0,0,1,9.46-4.32c1.37-.4,2.74-.78,4.14-1.07a14.54,14.54,0,0,1,2-.42,34,34,0,0,0,3.8,1.29,9.15,9.15,0,0,0,1.44.35.3.3,0,0,0,.31-.23c0-.14-.11-.25-.24-.26a2.34,2.34,0,0,1-.38-.09l-1.43-.46,0-.06a13.25,13.25,0,0,1-1-1.79c-.43-1-.78-2-1.22-2.91s-1-2-1.54-3a13.42,13.42,0,0,0-3.57-4.08,11.25,11.25,0,0,0-6.14-2.66c-.2-.05-.4,0-.39.26s.29.41.43.61a23.88,23.88,0,0,0,2.3,2.31c.91.79,1.75,1.67,2.6,2.54,2.26,2.48,4.33,5.14,6.43,7.77a1.63,1.63,0,0,0,.36.38c-1.08-.4-2.14-.84-3.23-1.21-1.28-.42-2.59-.79-3.84-1.3-2.52-1.05-5-2.19-7.48-3.35-.1-.17-.2-.33-.29-.5-.29-.52-.58-1.06-.84-1.6a19.22,19.22,0,0,1-1-2.55c-.22-.62-.46-1.24-.64-1.88a32.41,32.41,0,0,1-.69-3.64,15.22,15.22,0,0,1-.35-2c0-.73.33-.75.71-1.26a2.41,2.41,0,0,0-.82-3.28,1.85,1.85,0,0,0-1.67,0,2,2,0,0,0-1.3,2c0,.62.05,1.4.6,1.79a2.36,2.36,0,0,0,1.9.31q.2,1.32.42,2.64a22.49,22.49,0,0,0,.39,2.46,31.85,31.85,0,0,0,1.72,5A24.19,24.19,0,0,0,48,181.94l-1.37-.65-.93-.44a11,11,0,0,1-1-1.26c-.78-1.29-1.58-2.55-2.35-3.83-.27-.45-.5-.93-.75-1.38,0-.08-.08-.16-.17-.19a.22.22,0,0,0-.14,0,1.37,1.37,0,0,0,.17-.17,1.1,1.1,0,0,0,.09-.14s0,0,0,0a1.29,1.29,0,0,0,.33-.52,1.92,1.92,0,0,0-.62-2.31,1.89,1.89,0,0,0-1.88.11c-1.11.72-1.29,2.55.09,3.07.5.14,1.24.41,1.7.07a.2.2,0,0,0,0,.08.36.36,0,0,0,.07.24,19.66,19.66,0,0,0,1.51,2.78,36.47,36.47,0,0,0,2,3c-1.91-.89-3.82-1.77-5.7-2.73-1.07-.54-2.14-1.1-3.2-1.68a11.38,11.38,0,0,1-.67-1.61,17,17,0,0,1-.53-2.45,67.44,67.44,0,0,0-1.7-7,20.7,20.7,0,0,0-1.74-3.29,15.73,15.73,0,0,0-2.15-2.74,29.05,29.05,0,0,0-3.33-2.94c-.31-.22-.47.11-.3.34a20.5,20.5,0,0,1,1.1,2.71c.76,1.84,1.28,3.78,2.06,5.61.77,1.59,1.56,3.16,2.39,4.71.62,1,1.25,2.09,1.93,3.1.42.57.87,1.12,1.29,1.7.15.21.34.4.5.61a.17.17,0,0,0,.13.07c0,.1.17.48.34.85-1-.58-2.09-1.18-3.11-1.79a49,49,0,0,1-6.62-4.52c-.76-.62-1.57-1.18-2.39-1.74l-.2-.13c-.22-.3-.45-.59-.65-.9a17.65,17.65,0,0,1-2.15-4.46c-.32-1.06-.6-2,.18-2.91a9.07,9.07,0,0,1,2.64-2.09c.18.83,1,1.46,1.77.78a1.25,1.25,0,0,0,0-1.74c-.52-.45-1.08.09-1.47.35-.55.39-1.23.55-1.77,1-.38.27-1.85,1.32-1.8,1.86a14.25,14.25,0,0,1,0-2.53,9.25,9.25,0,0,1,.71-2.5c.25-.63.46-1.28.67-1.93a4.14,4.14,0,0,1,.34-1c.16-.23.45-.32.61-.58a1.25,1.25,0,0,0-.9-1.82A1.45,1.45,0,0,0,19.54,149.88Zm0,23.42a16.09,16.09,0,0,0-3.66.53,1.74,1.74,0,0,0-1-.91h-.11a1.58,1.58,0,0,0,0-.78.57.57,0,0,0,.07-.22,10.47,10.47,0,0,1,4.17.11,18.38,18.38,0,0,1,3,.71c.36.16.72.31,1.07.48C21.91,173.24,20.74,173.26,19.56,173.3Z"/><path class="cls-1" d="M151.43,149a1.26,1.26,0,0,0-.91,1.82c.16.26.45.35.61.58a3.74,3.74,0,0,1,.34,1c.22.65.42,1.3.68,1.93a9.23,9.23,0,0,1,.7,2.5,13.37,13.37,0,0,1,0,2.53c0-.54-1.42-1.59-1.79-1.86-.55-.41-1.22-.57-1.78-1-.39-.26-1-.8-1.46-.35a1.24,1.24,0,0,0,0,1.74c.78.68,1.59,0,1.77-.78a9,9,0,0,1,2.65,2.09c.78.92.5,1.85.18,2.91a18.36,18.36,0,0,1-2.15,4.46c-.21.31-.43.6-.66.9l-.19.13c-.82.56-1.63,1.12-2.4,1.74a48.23,48.23,0,0,1-6.61,4.52c-1,.61-2.07,1.21-3.12,1.79.17-.37.3-.75.35-.85a.17.17,0,0,0,.13-.07c.15-.21.34-.4.49-.61.42-.58.87-1.13,1.29-1.7.68-1,1.32-2.05,1.93-3.1.84-1.55,1.63-3.12,2.39-4.71.79-1.83,1.31-3.77,2.07-5.61a21.9,21.9,0,0,1,1.09-2.71c.17-.23,0-.56-.29-.34a29.05,29.05,0,0,0-3.33,2.94,15.79,15.79,0,0,0-2.16,2.74,21.54,21.54,0,0,0-1.74,3.29,70.06,70.06,0,0,0-1.7,7,16.94,16.94,0,0,1-.52,2.45,10.36,10.36,0,0,1-.68,1.61c-1.06.58-2.12,1.14-3.2,1.68-1.87,1-3.78,1.84-5.69,2.73a36.37,36.37,0,0,0,2-3,20.79,20.79,0,0,0,1.52-2.78c0-.08.09-.15.07-.24a.22.22,0,0,0,0-.08c.47.34,1.21.07,1.7-.07,1.39-.52,1.2-2.35.1-3.07a1.89,1.89,0,0,0-1.88-.11,1.94,1.94,0,0,0-.63,2.31,1.29,1.29,0,0,0,.33.52s0,0,0,0a1.1,1.1,0,0,0,.09.14.91.91,0,0,0,.17.17.26.26,0,0,0-.15,0,.34.34,0,0,0-.16.19c-.26.45-.48.93-.75,1.38-.78,1.28-1.58,2.54-2.35,3.83a10.06,10.06,0,0,1-1,1.26l-.92.44-1.37.65a24.11,24.11,0,0,0,1.17-2.19,31.89,31.89,0,0,0,1.73-5c.19-.81.28-1.63.39-2.46s.28-1.76.41-2.64a2.35,2.35,0,0,0,1.9-.31c.56-.39.57-1.17.6-1.79a2,2,0,0,0-1.29-2,1.87,1.87,0,0,0-1.68,0,2.41,2.41,0,0,0-.81,3.28c.37.51.71.53.7,1.26a13.7,13.7,0,0,1-.34,2,32.41,32.41,0,0,1-.69,3.64c-.18.64-.42,1.26-.64,1.88a20.75,20.75,0,0,1-1,2.55c-.26.54-.54,1.08-.84,1.6l-.28.5c-2.48,1.16-5,2.3-7.48,3.35-1.26.51-2.56.88-3.85,1.3-1.08.37-2.15.81-3.22,1.21a1.86,1.86,0,0,0,.36-.38c2.09-2.63,4.16-5.29,6.43-7.77.84-.87,1.68-1.75,2.6-2.54a23.77,23.77,0,0,0,2.29-2.31c.15-.2.39-.36.44-.61s-.2-.31-.39-.26a11.22,11.22,0,0,0-6.14,2.66,13.45,13.45,0,0,0-3.58,4.08c-.54,1-1.06,2-1.53,3s-.8,1.95-1.23,2.91a12.21,12.21,0,0,1-1,1.79l0,.06-1.43.46-.39.09a.23.23,0,0,0-.23.26.29.29,0,0,0,.31.23,8.78,8.78,0,0,0,1.43-.35,33.46,33.46,0,0,0,3.81-1.29,14.88,14.88,0,0,1,2,.42c1.39.29,2.77.67,4.13,1.07a36.16,36.16,0,0,1,9.46,4.32,2,2,0,0,1,.22.14,1.66,1.66,0,0,0-.14,1.53,1.43,1.43,0,0,0,2.19.53c1.24-.66.65-2.68-.66-2.81a1.37,1.37,0,0,0-1.1.39l0,0a31.22,31.22,0,0,0-5.15-2.79l-.12-.06c.49,0,1-.06,1.48-.06,1,0,2.11,0,3.17.05l.39,0a.82.82,0,0,0,.1.4c.57,1.2,2.76.76,2.16-.7,0,0,0,0-.05-.06a1.85,1.85,0,0,0-.13-.29,1.11,1.11,0,0,0-2,.24,5.68,5.68,0,0,0-1.11-.14,21.06,21.06,0,0,0-3.89.1l-.78.07h-.12a43.93,43.93,0,0,0-7-2.19c-.72-.14-1.44-.35-2.17-.45.35-.14.69-.27,1-.39,1.15-.4,2.33-.73,3.46-1.18,2.6-1.08,5.17-2.24,7.73-3.44a26.47,26.47,0,0,0,2.68.31,25.34,25.34,0,0,0,5.15-.09c2.28-.12,4.57-.19,6.84-.44a45.69,45.69,0,0,1,5.85-.33c1.33-.06,2.66-.23,4-.42a14,14,0,0,1,2.14-.19c.18,0,.37,0,.55,0s.48,0,.42-.23-.31-.19-.46-.28a25,25,0,0,0-2.54-1,28.44,28.44,0,0,0-10.66-1c-1.41.12-2.8.39-4.2.65a22,22,0,0,0-3.91.92c-1.16.38-2.34.68-3.53,1l.34-.16h0l0,0c3.33-1.56,6.65-3.12,9.88-4.88,1.59-.88,3.17-1.77,4.73-2.71,0,0,.05,0,.08,0a2.61,2.61,0,0,1,.56-.08c1.36-.07,2.72-.08,4.07-.23s2.8-.09,4.2-.07a.2.2,0,0,0,.07.1,17.18,17.18,0,0,1,2.5,1.61,25.59,25.59,0,0,1,3.12,2.56.27.27,0,0,0,.08.07,1.32,1.32,0,0,0,.06.68c.17,1.12,2,1.16,2.45.23a1.28,1.28,0,0,0-.87-1.68,1.36,1.36,0,0,0-1.45.47l0,0a16.38,16.38,0,0,0-2.19-2,22.69,22.69,0,0,0-3-2l.93,0a24.45,24.45,0,0,1,2.56.17,10.93,10.93,0,0,1,2.12.36,1.42,1.42,0,0,0,.28,1.37c1,.88,3.07,0,3-1.32a1.42,1.42,0,0,0-.1-.42,1.19,1.19,0,0,0,.38-.17,1.56,1.56,0,0,0,.59-2.17,1.78,1.78,0,0,0-2.57-.39,1,1,0,0,0-.38.47,10.29,10.29,0,0,0-4.9.14c-.56.13-1.13.24-1.68.4a11.49,11.49,0,0,0-1.45.62,6.36,6.36,0,0,0-.58.3.24.24,0,0,0-.16.2h-1.12c-1.45,0-2.88.19-4.33.23-.49,0-1,.06-1.47.12,1.18-.73,2.33-1.48,3.45-2.29.83-.58,1.58-1.26,2.38-1.87A8.05,8.05,0,0,1,150,168a12.35,12.35,0,0,1,2.79-.39,36.54,36.54,0,0,0,3.77-.43,22.79,22.79,0,0,0,5.5-1.46l2-.85a12,12,0,0,0,2.08-1,.33.33,0,0,0,.1-.17.25.25,0,0,0-.19-.3c-1.58,0-3.15-.12-4.73-.12a19.46,19.46,0,0,0-3.95.46,27.46,27.46,0,0,0-5.18,2c-.55.31-1.08.65-1.61,1a12.3,12.3,0,0,0,.93-1.45,15.21,15.21,0,0,0,1.25-2.68,6.34,6.34,0,0,0,2.09-.67,8.64,8.64,0,0,0,1.65-1.07,3.15,3.15,0,0,0,.43-.05,10,10,0,0,0,3-1.24c.1-.08.24-.15.34-.24,0,.22.25.3.39.42.85.61,1.89.1,1.69-1-.07-.78-.93-1.6-1.72-1.25a1.45,1.45,0,0,0-.69,1.29.59.59,0,0,0,0,.22,9.36,9.36,0,0,1-1.33.7c-.52.2-1,.43-1.55.6a25.57,25.57,0,0,0,2-2.16,6.28,6.28,0,0,0,1.2-1.66,1.07,1.07,0,0,0,.85.12,1.78,1.78,0,0,0,1-1.1,1.6,1.6,0,0,0-.44-1.42,1.43,1.43,0,0,0-2,0,1.37,1.37,0,0,0-.13,1.93,1,1,0,0,0,.32.32,7.82,7.82,0,0,1-1.17,1.57,15.87,15.87,0,0,1-2.44,2.54c-.1,0-.18.07-.2.16-.29.22-.58.43-.88.62a9.51,9.51,0,0,1-1.4.68,3.26,3.26,0,0,1-.95.29s0,0,0-.05a17.63,17.63,0,0,0,.55-4.68,11.09,11.09,0,0,0-1.32-4.58,3.75,3.75,0,0,1-.41-1.25.57.57,0,0,1,0-.13,1,1,0,0,0,.37-.12,1.6,1.6,0,0,0,.82-1.58A1.45,1.45,0,0,0,151.43,149Zm-2,24.27c.35-.17.72-.32,1.08-.48a18.52,18.52,0,0,1,2.94-.71,10.52,10.52,0,0,1,4.18-.11.57.57,0,0,0,.07.22,1.58,1.58,0,0,0,0,.78h-.1a1.76,1.76,0,0,0-1,.91,16,16,0,0,0-3.66-.53C151.74,173.26,150.57,173.24,149.39,173.22Z"/></svg>