<svg id="Layer_1" data-name="Layer 1" xmlns="http://www.w3.org/2000/svg" viewBox="0 0 256.88 228.04"><defs><style>.cls-1{fill:#0a273c;}.cls-2{fill:#fff;}</style></defs><rect class="cls-1" width="256.88" height="228.04"/><path class="cls-2" d="M163.67,109.82c-.06,12.12-3.15,23.75-8,34.76-3.38,7.58-7.54,14.82-11.35,22.21a5.51,5.51,0,0,1-5.62,3.29c-5.8-.15-11.61-.13-17.39,0a5.45,5.45,0,0,1-5.45-3.11c-.79-1.43-1.6-2.84-2.41-4.26-1.08-1.86-2.21-3.69-3.23-5.58-.85-1.54-1.6-3.12-2.34-4.73-.9-2-1.84-4-2.71-6l.06-.08c-.36-.73-.7-1.49-1-2.22a.34.34,0,0,1,0-.1c0-.07-.07-.17-.11-.26l-.09-.21c-13-29.63-8.32-56.08,11-83-2.85,6-6,10-7.69,16.4-8.29,30.8-3.37,59.6,13.76,86.42a5.54,5.54,0,0,0,5.32,2.88c4.58-.16,9.18.14,13.74-.16a5.56,5.56,0,0,0,4-2.32c10.38-20,16.45-41.08,14.15-63.94-.19-1.83-.66-3.64-1.05-5.79-5.4,2.29-11.61,2.3-17.26,1-2.83-.63-5.56-1.65-8.34-2.45-1.68-.49-3.35-1-5-1.49-1.53-.39-2.94-.93-4.81-1.49,2.87.34,5.75.62,8.61,1,4.69.59,9.42,1.62,14.13,1.87,2.73.15,5.8-.36,7.84-2.33,2.22-2.14,1.64-5.38.33-7.83a54.4,54.4,0,0,0-12.5-15.82c-5-4.26-11.66-8.67-18.39-8.91a15.11,15.11,0,0,0-2.85.17,6.27,6.27,0,0,0-1.22.24l.31-.49c3.08-5.16,7.13-10.52,7.45-16.76a18,18,0,0,0-2-9.31c-1.13-2.13-2.64-4.11-3.28-6.45a12.11,12.11,0,0,1,.53-7.63,10.2,10.2,0,0,1,16.07-4c3.36,2.75,3.89,7.33,3,11.34A28.72,28.72,0,0,1,137,31.43a31.1,31.1,0,0,0,1.23-11.24,6.58,6.58,0,0,0-7.88-5.8,6.24,6.24,0,0,0-4.07,3.39c-2.58,5.18,0,11.4,3.09,15.72.19.28,3.62-4.47,3.85-4.9,1.86-3.41,3.31-8.16.77-11.59,0,.07,8.42,4.11-1.81,19.88a19.76,19.76,0,0,0,2.07,2.68c9.68,12.09,18.49,25.87,23.89,40.5.93,2.53,1.77,5.09,2.5,7.69A80.26,80.26,0,0,1,163.67,109.82Z"/><path class="cls-2" d="M114.79,69.15c-5.08,28.4-6,55.66,4.89,83C104.63,125.09,104.2,96.22,114.79,69.15Z"/><path class="cls-2" d="M133,90c5.3.46,18,2.44,18.17-3.34,3,7.61-12.93,4.78-18.14,3.4C133,90,133,89.9,133,90Z"/><path class="cls-2" d="M3.88,211.62a2.22,2.22,0,0,1,.44-1.37A6.27,6.27,0,0,1,5.53,209,5.43,5.43,0,0,0,6.64,208a3.61,3.61,0,0,0,.46-1.37l2.22-14.75a3.15,3.15,0,0,1,.83-1.56A5.79,5.79,0,0,1,11.82,189a4.2,4.2,0,0,1,1.93-.5c.43,0,.65.14.65.4a3.13,3.13,0,0,1-.36,1,8.24,8.24,0,0,0-.61,2.28l-.6,4.19h3.34a4.6,4.6,0,0,0,2.84-2,6.17,6.17,0,0,0,1.07-3.61,3.53,3.53,0,0,0-1.25-3,6.49,6.49,0,0,0-3.91-.94A11.13,11.13,0,0,0,9.54,188a14.94,14.94,0,0,0-3.69,2.82,8.2,8.2,0,0,1-.78.76.88.88,0,0,1-.55.21c-.29,0-.44-.18-.44-.53a3.91,3.91,0,0,1,.2-.84,9.05,9.05,0,0,1,2.42-3.25A12.66,12.66,0,0,1,11,184.71a16.87,16.87,0,0,1,5.63-.91,10.26,10.26,0,0,1,6.1,1.56,5.22,5.22,0,0,1,2.16,4.53q0,4.4-4.56,7.1a10.12,10.12,0,0,1,3,2.94,6.5,6.5,0,0,1,1.07,3.59A7,7,0,0,1,22.82,208a10.43,10.43,0,0,1-4.05,3.11,12.34,12.34,0,0,1-5.1,1.11c-.64,0-1.91-.13-3.79-.37-1.34-.16-2.19-.24-2.54-.24a8.93,8.93,0,0,0-2.17.4,3.14,3.14,0,0,1-.89.21C4,212.19,3.88,212,3.88,211.62Zm14.43-4a3.73,3.73,0,0,0,1.41-3.17,5.54,5.54,0,0,0-3.22-5H12.3l-1,7a4.4,4.4,0,0,1-.22,1.07,3.15,3.15,0,0,1-.42.78l0,.05a11.9,11.9,0,0,0,1.59.28,16.75,16.75,0,0,0,1.92.12A6.74,6.74,0,0,0,18.31,207.61Z"/><path class="cls-2" d="M28.25,210.92a6.15,6.15,0,0,1-1.72-4.62,10.23,10.23,0,0,1,1.88-5.83,16.42,16.42,0,0,1,5.34-4.81,18.76,18.76,0,0,1-.69-4.2,8,8,0,0,1,.95-3.85,7.35,7.35,0,0,1,2.58-2.78,6.69,6.69,0,0,1,3.61-1,4.28,4.28,0,0,1,2.92.93,3.44,3.44,0,0,1,1.07,2.74,6.52,6.52,0,0,1-1.53,4A20.42,20.42,0,0,1,38,195.62a10.24,10.24,0,0,0,.61,1.93,8.76,8.76,0,0,1,3.14-1.61,18.19,18.19,0,0,1,4.68-.49l3.34,0a6,6,0,0,0,3.11-.66A2.86,2.86,0,0,0,54,192.19a3.58,3.58,0,0,0-.18-1.29,3.52,3.52,0,0,0-.43-.75.87.87,0,0,1-.24-.46,2.18,2.18,0,0,1,.56-1.13,8.16,8.16,0,0,1,1.27-1.29,2,2,0,0,1,1.11-.56.56.56,0,0,1,.41.24A4.06,4.06,0,0,1,57,188.3a8.22,8.22,0,0,1,.16,1.75,7.88,7.88,0,0,1-1.27,4.44,8.62,8.62,0,0,1-3.59,3,12.1,12.1,0,0,1-5.3,1.11h-.2a19.74,19.74,0,0,1-4.27,8.26,9.27,9.27,0,0,0,1.11,1.68,1.32,1.32,0,0,0,.94.5q1,0,2.22-1.53c.3-.4.54-.61.73-.61s.28.19.28.57a2.43,2.43,0,0,1,0,.52,6,6,0,0,1-1.72,3.15,4.09,4.09,0,0,1-2.92,1.41q-1.77,0-3.55-2.66a11.08,11.08,0,0,1-6.89,2.66A6.11,6.11,0,0,1,28.25,210.92Zm8.46-1.64a8.12,8.12,0,0,0,1.88-1.21q-1.34-2.7-2.28-5t-1.92-5.3a8.84,8.84,0,0,0-2.44,3,9,9,0,0,0-.86,4A6,6,0,0,0,32,208.4a3.21,3.21,0,0,0,2.76,1.29A4.62,4.62,0,0,0,36.71,209.28Zm3.69-20.56a3.5,3.5,0,0,0-.46-1.83,1.47,1.47,0,0,0-2.66.12,5.57,5.57,0,0,0-.47,2.52,18.48,18.48,0,0,0,.57,3.95C39.39,192,40.4,190.42,40.4,188.72Zm2.28,12.56a14.67,14.67,0,0,0,.7-2.76h-.2a6.11,6.11,0,0,0-3.83,1,28.42,28.42,0,0,0,1.49,3.83c.09.21.17.41.27.6a4.45,4.45,0,0,1,.22.57A25.58,25.58,0,0,0,42.68,201.28Z"/><path class="cls-2" d="M58,211.86a5.72,5.72,0,0,1-2.18-1.79A4.32,4.32,0,0,1,55,208a5,5,0,0,1,.59-2.19,7.88,7.88,0,0,1,1.39-2c.54-.57,1-.85,1.25-.85.13,0,.23.16.28.49a31.29,31.29,0,0,0,.67,3.73A3.69,3.69,0,0,0,60.26,209a3.58,3.58,0,0,0,2.35.67,4.42,4.42,0,0,0,3.29-1.13A4.21,4.21,0,0,0,67,205.49a4.85,4.85,0,0,0-.49-2.25,15.28,15.28,0,0,0-1.73-2.54L61,196.18a6.94,6.94,0,0,1-1.23-2,5.65,5.65,0,0,1-.34-2,8.33,8.33,0,0,1,1-4A8.16,8.16,0,0,1,63.52,185a9.42,9.42,0,0,1,4.86-1.21,6.51,6.51,0,0,1,3.73.93,3,3,0,0,1,1.35,2.62,4.74,4.74,0,0,1-.2,1.35,5,5,0,0,1-.53,1.19,4.15,4.15,0,0,1-.78,1,1.15,1.15,0,0,1-.75.28.6.6,0,0,1-.6-.38,4.22,4.22,0,0,1-.25-1.07,4,4,0,0,0-.82-2.36,3.08,3.08,0,0,0-2.44-.83,4.08,4.08,0,0,0-2.82.91,3,3,0,0,0-1,2.36,3.74,3.74,0,0,0,.32,1.55,6.62,6.62,0,0,0,1,1.51l3.87,4.44a12,12,0,0,1,2.06,3,7.48,7.48,0,0,1,.64,3.07,8.3,8.3,0,0,1-1.37,4.55,10.06,10.06,0,0,1-3.65,3.41,9.71,9.71,0,0,1-4.82,1.27A7.24,7.24,0,0,1,58,211.86Z"/><path class="cls-2" d="M86.24,211.7a1.77,1.77,0,0,1,.32-1,7.24,7.24,0,0,1,.93-1.09,5.88,5.88,0,0,0,.92-1,4.35,4.35,0,0,0,.51-1.19,19.82,19.82,0,0,0,.46-2.3l2.9-17.42h-.2a7.28,7.28,0,0,0-2.6.37,7.84,7.84,0,0,0-1.59.8,2.39,2.39,0,0,1-.81.45c-.18,0-.28-.14-.28-.41a3.81,3.81,0,0,1,.08-.6,4.65,4.65,0,0,1,2.5-2.94,10.65,10.65,0,0,1,5.2-1.13c.94,0,2.08.07,3.43.2,2.15.13,3.44.2,3.87.2a13.72,13.72,0,0,0,2.5-.18A12.09,12.09,0,0,0,106,184a3.92,3.92,0,0,1,.91-.22.45.45,0,0,1,.3.09c.07.05.1.16.1.32a2.93,2.93,0,0,1-.62,1.55,5.51,5.51,0,0,1-1.84,1.59,5.84,5.84,0,0,1-2.94.69c-.24,0-.79,0-1.65-.08-1.29-.11-2.5-.17-3.63-.17l-1.49,9.12h7.78c.27,0,.4.09.4.28a2.88,2.88,0,0,1-.5,1.19,6.68,6.68,0,0,1-1.23,1.47,2.21,2.21,0,0,1-1.45.64,9.57,9.57,0,0,1-1.21-.16,16,16,0,0,0-3-.36H94.54l-1.13,6.93a3.1,3.1,0,0,1-.92,1.74v0a2.72,2.72,0,0,0,1.61.4,3,3,0,0,0,1.15-.22,2.52,2.52,0,0,1,.7-.22.32.32,0,0,1,.37.36,1.9,1.9,0,0,1-.53,1.09c-1.07,1.4-2.12,2.1-3.14,2.1a4.55,4.55,0,0,1-1-.13L91,211.9a6.22,6.22,0,0,0-1.93-.36,4.29,4.29,0,0,0-1.65.32,3.91,3.91,0,0,1-.93.33C86.32,212.19,86.24,212,86.24,211.7Z"/><path class="cls-2" d="M105.43,212.1a3.33,3.33,0,0,1,.3-.9,11.08,11.08,0,0,0,.58-2.2l.69-3.87c.73-4.14,1.1-6.56,1.13-7.26v-.36c0-.46-.12-.68-.36-.68-.52,0-1.21.81-2.1,2.46a4.08,4.08,0,0,1-.36.58.56.56,0,0,1-.41.26c-.27,0-.4-.23-.4-.68a5.32,5.32,0,0,1,1-2.6,10.67,10.67,0,0,1,2.34-2.71,4.28,4.28,0,0,1,2.68-1.14c1.15,0,1.73.76,1.73,2.29,0,.33-.11,1.45-.32,3.39h0a17.33,17.33,0,0,1,3.2-4.33,4.59,4.59,0,0,1,3-1.35,2.39,2.39,0,0,1,1.69.6,2.25,2.25,0,0,1,.64,1.73,4.83,4.83,0,0,1-.5,2.14,5.45,5.45,0,0,1-1.23,1.71,2,2,0,0,1-1.25.67c-.21,0-.28-.14-.2-.4a5.12,5.12,0,0,0,.12-1q0-1.05-.93-1.05c-1,0-2,.7-3,2.1a16.23,16.23,0,0,0-2.36,6c-.4,1.67-.67,3-.8,3.91a3.64,3.64,0,0,1-1.6,2.16,4.41,4.41,0,0,1-2.6,1C105.66,212.59,105.43,212.43,105.43,212.1Z"/><path class="cls-2" d="M120.32,211.34a6.81,6.81,0,0,1-.7-3.35,16.14,16.14,0,0,1,1.63-6.85,16.31,16.31,0,0,1,4.46-5.83,9.42,9.42,0,0,1,6.08-2.31,9.16,9.16,0,0,1,2.08.24,6.55,6.55,0,0,1,1.67.6,9.26,9.26,0,0,0-.48,1.45c-.08.38-.14.62-.16.73-.19,1-.47,2.44-.83,4.41s-.71,3.87-1,5.67a10.21,10.21,0,0,0-.24,1.85,1.21,1.21,0,0,0,.14.65.49.49,0,0,0,.42.2,1.56,1.56,0,0,0,1.25-.83,13.76,13.76,0,0,0,1.21-2.32,1.37,1.37,0,0,1,.21-.4.36.36,0,0,1,.32-.16c.24,0,.36.19.36.56a1.82,1.82,0,0,1,0,.45,8.3,8.3,0,0,1-1,3,8,8,0,0,1-2.07,2.48,4,4,0,0,1-2.52,1,2,2,0,0,1-1.64-.77,3.28,3.28,0,0,1-.58-2,9.44,9.44,0,0,1,.08-1l.2-1.37H129a14.89,14.89,0,0,1-3.41,3.71,5.88,5.88,0,0,1-3.32,1.45A2.18,2.18,0,0,1,120.32,211.34Zm6.53-4.31a18.4,18.4,0,0,0,2.6-4,16.73,16.73,0,0,0,1.62-4.77l.28-1.58a3.68,3.68,0,0,0-1.85-.6,3.55,3.55,0,0,0-2.6,1.59,12.38,12.38,0,0,0-2.14,4.12,16.35,16.35,0,0,0-.83,5.13,4.18,4.18,0,0,0,.14,1.32.52.52,0,0,0,.51.34C125.17,208.6,125.93,208.07,126.85,207Z"/><path class="cls-2" d="M135.14,227.4a5.52,5.52,0,0,1-1.88-2.17,6.11,6.11,0,0,1-.62-2.6,4,4,0,0,1,.71-2.42,4.92,4.92,0,0,1,1.55-1.51,2.9,2.9,0,0,1,1.21-.51c.13,0,.2.14.2.4a10.16,10.16,0,0,0,.84,4.9,3.21,3.21,0,0,0,3,1.39,4.48,4.48,0,0,0,2.78-.82,7.14,7.14,0,0,0,1.93-2.48,12.68,12.68,0,0,0,1-3c.24-1.16.62-3.46,1.13-6.87a29.59,29.59,0,0,1,.59-3c.17-.63.28-1.07.34-1.31h-.08a16.08,16.08,0,0,1-3.53,3.71,6.08,6.08,0,0,1-3.37,1.45,2.1,2.1,0,0,1-1.89-1.23,6.73,6.73,0,0,1-.69-3.29,15.47,15.47,0,0,1,1.74-6.87,17.12,17.12,0,0,1,4.63-5.87A9.79,9.79,0,0,1,150.9,193a8.86,8.86,0,0,1,2.06.24,7.35,7.35,0,0,1,1.69.6L154,196a69.65,69.65,0,0,0-2.36,10c-.26,2.12-.4,3.29-.43,3.51-.4,2.84-.78,5.05-1.12,6.63a19.25,19.25,0,0,1-1.23,3.87,15.59,15.59,0,0,1-1.92,3,15.42,15.42,0,0,1-4.39,3.91,9,9,0,0,1-4.4,1.29A5.15,5.15,0,0,1,135.14,227.4ZM145.54,207a19.57,19.57,0,0,0,2.58-4,16.7,16.7,0,0,0,1.61-4.77l.29-1.58a3.61,3.61,0,0,0-1.9-.6,3.46,3.46,0,0,0-2.56,1.59,12.92,12.92,0,0,0-2.1,4.12,16.34,16.34,0,0,0-.82,5.13,4.73,4.73,0,0,0,.12,1.32.5.5,0,0,0,.52.34C143.87,208.6,144.63,208.07,145.54,207Z"/><path class="cls-2" d="M157,212.1a3.33,3.33,0,0,1,.3-.9,11.68,11.68,0,0,0,.59-2.2l.68-3.87c.73-4.14,1.1-6.56,1.13-7.26v-.36c0-.46-.12-.68-.36-.68-.51,0-1.21.81-2.1,2.46a4.08,4.08,0,0,1-.36.58.57.57,0,0,1-.4.26c-.27,0-.41-.23-.41-.68a5.32,5.32,0,0,1,.95-2.6,10.67,10.67,0,0,1,2.34-2.71A4.28,4.28,0,0,1,162,193c1.15,0,1.73.76,1.73,2.29,0,.33-.11,1.45-.32,3.39h0a17.32,17.32,0,0,1,3.21-4.33,4.57,4.57,0,0,1,3-1.35,2.38,2.38,0,0,1,1.69.6,2.25,2.25,0,0,1,.65,1.73,4.84,4.84,0,0,1-.51,2.14,5.29,5.29,0,0,1-1.23,1.71,2,2,0,0,1-1.25.67c-.21,0-.28-.14-.2-.4a5.12,5.12,0,0,0,.12-1q0-1.05-.93-1.05c-1,0-2,.7-3,2.1a16.23,16.23,0,0,0-2.36,6c-.4,1.67-.67,3-.8,3.91a3.64,3.64,0,0,1-1.6,2.16,4.41,4.41,0,0,1-2.6,1C157.18,212.59,157,212.43,157,212.1Z"/><path class="cls-2" d="M171.85,211.34a6.7,6.7,0,0,1-.71-3.35,16.14,16.14,0,0,1,1.63-6.85,16.31,16.31,0,0,1,4.46-5.83,9.42,9.42,0,0,1,6.08-2.31,9.09,9.09,0,0,1,2.08.24,6.41,6.41,0,0,1,1.67.6,9.26,9.26,0,0,0-.48,1.45c-.08.38-.14.62-.16.73-.19,1-.47,2.44-.83,4.41s-.7,3.87-1,5.67a10.21,10.21,0,0,0-.24,1.85,1.21,1.21,0,0,0,.14.65.51.51,0,0,0,.43.2,1.58,1.58,0,0,0,1.25-.83,13.83,13.83,0,0,0,1.2-2.32,1.66,1.66,0,0,1,.21-.4.36.36,0,0,1,.32-.16c.24,0,.36.19.36.56a1.82,1.82,0,0,1,0,.45,8.3,8.3,0,0,1-1.05,3,8,8,0,0,1-2.07,2.48,4,4,0,0,1-2.52,1,2,2,0,0,1-1.64-.77,3.28,3.28,0,0,1-.58-2,9.44,9.44,0,0,1,.08-1l.2-1.37h-.08a15,15,0,0,1-3.4,3.71,5.93,5.93,0,0,1-3.33,1.45A2.16,2.16,0,0,1,171.85,211.34Zm6.52-4.31a18.79,18.79,0,0,0,2.61-4,17,17,0,0,0,1.61-4.77l.28-1.58a3.68,3.68,0,0,0-1.85-.6,3.55,3.55,0,0,0-2.6,1.59,12.38,12.38,0,0,0-2.14,4.12,16.35,16.35,0,0,0-.83,5.13,4.18,4.18,0,0,0,.14,1.32.53.53,0,0,0,.51.34C176.69,208.6,177.45,208.07,178.37,207Z"/><path class="cls-2" d="M191.1,212.14a4.2,4.2,0,0,1,.2-.84,20.47,20.47,0,0,0,.56-2q.28-1.17.81-4.23t1-6a14,14,0,0,0,.21-1.65c0-.4-.12-.6-.37-.6s-.55.2-.92.62a9.27,9.27,0,0,0-1.21,1.84,3.38,3.38,0,0,1-.37.58.53.53,0,0,1-.4.26c-.27,0-.4-.23-.4-.68a5.31,5.31,0,0,1,.94-2.64,10.8,10.8,0,0,1,2.34-2.69,4.32,4.32,0,0,1,2.68-1.12,1.59,1.59,0,0,1,1.29.56,2.65,2.65,0,0,1,.49,1.77,23.55,23.55,0,0,1-.32,3.59h0q4.31-5.92,7.25-5.92c1.37,0,2.06.95,2.06,2.86a16.19,16.19,0,0,1-.36,3.06q-1,4.72-1.33,6.67a19.68,19.68,0,0,0-.37,2.36c0,.57.16.85.49.85.75,0,1.51-1.05,2.3-3.15.16-.37.33-.56.52-.56s.46.34.4,1a7.7,7.7,0,0,1-1.05,2.94,8.59,8.59,0,0,1-2.19,2.54,4.36,4.36,0,0,1-2.64,1c-1.32,0-2-.89-2-2.66a16.33,16.33,0,0,1,.24-2.54c.16-1,.41-2.27.73-3.83.21-1.05.41-2.1.58-3.15a19,19,0,0,0,.3-2.54v-.32c0-.43-.13-.64-.4-.64-.46,0-1.09.47-1.89,1.43A17.64,17.64,0,0,0,198,201.9a16.94,16.94,0,0,0-1.47,4.12l-.65,3.26a4,4,0,0,1-1.55,2.26,4.16,4.16,0,0,1-2.6,1.05C191.31,212.59,191.1,212.44,191.1,212.14Z"/><path class="cls-2" d="M211.51,211.12a6.39,6.39,0,0,1-1.14-4,14.75,14.75,0,0,1,1.59-6.39,16.6,16.6,0,0,1,4.15-5.53,8.06,8.06,0,0,1,5.26-2.19,3.69,3.69,0,0,1,2,.5,1.55,1.55,0,0,1,.78,1.35,4.42,4.42,0,0,1-.68,1.85c-.22.38-.44.57-.69.57a.6.6,0,0,1-.48-.24,3.39,3.39,0,0,0-2.46-1.09,3.81,3.81,0,0,0-2.68,1.13,7.58,7.58,0,0,0-1.86,3.08,13.66,13.66,0,0,0-.66,4.38,6.46,6.46,0,0,0,.58,3.16,2,2,0,0,0,1.88,1c1.42,0,2.69-1,3.79-3a2.36,2.36,0,0,1,.34-.58.48.48,0,0,1,.34-.14c.27,0,.41.24.41.72a5.51,5.51,0,0,1-1.09,3,9.82,9.82,0,0,1-2.8,2.76,6.33,6.33,0,0,1-3.49,1.13A3.77,3.77,0,0,1,211.51,211.12Z"/><path class="cls-2" d="M225.78,211.16a6.13,6.13,0,0,1-1.19-4,14.92,14.92,0,0,1,1.56-6.35,17.67,17.67,0,0,1,3.95-5.57,7.12,7.12,0,0,1,4.82-2.23,2.89,2.89,0,0,1,2.11.76,2.94,2.94,0,0,1,.79,2.22,7.16,7.16,0,0,1-1.17,3.73,14.08,14.08,0,0,1-3.2,3.55,18,18,0,0,1-4.58,2.64c.08,1.85.9,2.78,2.46,2.78a4.17,4.17,0,0,0,2.44-.81,7.77,7.77,0,0,0,2-2.18,3.27,3.27,0,0,1,.37-.54.43.43,0,0,1,.32-.18.31.31,0,0,1,.32.16,1.47,1.47,0,0,1,.08.56,5.35,5.35,0,0,1-1.15,2.95,10.18,10.18,0,0,1-3,2.8,6.84,6.84,0,0,1-3.71,1.15A4.07,4.07,0,0,1,225.78,211.16Zm5.91-9.19a5.12,5.12,0,0,0,1.53-1.64,4.07,4.07,0,0,0,.61-2.17c0-1-.39-1.46-1.17-1.46a2.8,2.8,0,0,0-2.26,1.58,9.69,9.69,0,0,0-1.29,4.19,1.84,1.84,0,0,0,.77.12A3.29,3.29,0,0,0,231.69,202Z"/><path class="cls-2" d="M240.2,212.1a3.46,3.46,0,0,1-1.31-1.14,2.83,2.83,0,0,1-.47-1.23,2.16,2.16,0,0,1,.37-1.52,5.24,5.24,0,0,1,1.33-1.43,1.75,1.75,0,0,1,.72-.4.38.38,0,0,1,.3.18,1.88,1.88,0,0,1,.27.47,6.1,6.1,0,0,0,1,1.89,2.21,2.21,0,0,0,1.78.72,2.4,2.4,0,0,0,1.59-.52,1.69,1.69,0,0,0,.63-1.37,3.09,3.09,0,0,0-.37-1.27,19.82,19.82,0,0,0-1.33-2.2l-.84-1.21a22,22,0,0,1-1.48-2.4,3.64,3.64,0,0,1-.38-1.59,5.34,5.34,0,0,1,1-3,6.76,6.76,0,0,1,2.5-2.24,7,7,0,0,1,3.32-.82,5,5,0,0,1,2.62.62,1.88,1.88,0,0,1,1,1.67,3.19,3.19,0,0,1-.68,1.74c-.35.43-.63.64-.85.64a.33.33,0,0,1-.24-.08,1.52,1.52,0,0,1-.18-.22l-.18-.26a2.83,2.83,0,0,0-2.42-1.33,2.61,2.61,0,0,0-1.57.44,1.45,1.45,0,0,0-.61,1.25,2.27,2.27,0,0,0,.32,1.15,12.64,12.64,0,0,0,1,1.39l.69.89.92,1.21a9.27,9.27,0,0,1,1.17,1.95,5,5,0,0,1,.36,1.92,5.28,5.28,0,0,1-1.23,3.44,8.16,8.16,0,0,1-3.06,2.34,8.49,8.49,0,0,1-3.49.83A4.49,4.49,0,0,1,240.2,212.1Z"/><path class="cls-2" d="M63.41,129.32a1.63,1.63,0,0,0,.81,1.59,1.31,1.31,0,0,0,.38.11.56.56,0,0,1,0,.13,3.59,3.59,0,0,1-.41,1.26A11.14,11.14,0,0,0,62.88,137a17.13,17.13,0,0,0,.55,4.68.14.14,0,0,0,0,.06,3.51,3.51,0,0,1-1-.3,9,9,0,0,1-1.4-.68c-.31-.19-.6-.4-.88-.61,0-.1-.1-.14-.21-.17a15.72,15.72,0,0,1-2.43-2.53,8.17,8.17,0,0,1-1.18-1.57,1.44,1.44,0,0,0,.33-.32,1.39,1.39,0,0,0-.14-1.94,1.41,1.41,0,0,0-2,0,1.56,1.56,0,0,0-.45,1.41,1.77,1.77,0,0,0,1,1.1A1,1,0,0,0,56,136a6.58,6.58,0,0,0,1.2,1.66,27.46,27.46,0,0,0,2,2.16c-.53-.17-1-.4-1.55-.6a10,10,0,0,1-1.34-.7.9.9,0,0,0,.06-.22,1.48,1.48,0,0,0-.69-1.29c-.8-.35-1.65.48-1.73,1.25-.19,1.08.84,1.6,1.69,1,.14-.11.41-.2.39-.42a2.71,2.71,0,0,0,.35.24,10,10,0,0,0,3,1.24,3,3,0,0,0,.43.06,8.84,8.84,0,0,0,1.64,1.06,6.4,6.4,0,0,0,2.1.67,15.6,15.6,0,0,0,1.24,2.69,13.6,13.6,0,0,0,.93,1.44c-.52-.36-1-.7-1.6-1a28.25,28.25,0,0,0-5.19-2,19.29,19.29,0,0,0-3.95-.46c-1.57,0-3.15.16-4.72.12a.27.27,0,0,0-.2.3.34.34,0,0,0,.11.17,11.29,11.29,0,0,0,2.08,1l2,.85a22.15,22.15,0,0,0,5.49,1.46,32,32,0,0,0,3.77.43,13.6,13.6,0,0,1,2.79.39,7.9,7.9,0,0,1,2.21,1.4c.8.62,1.56,1.3,2.39,1.88,1.12.8,2.27,1.56,3.44,2.28-.49-.05-1-.09-1.46-.11-1.45,0-2.89-.27-4.34-.24H67.48a.25.25,0,0,0-.16-.2,6.54,6.54,0,0,0-.59-.3,10.32,10.32,0,0,0-1.45-.61c-.55-.17-1.11-.28-1.68-.41a10.25,10.25,0,0,0-4.89-.13,1.1,1.1,0,0,0-.38-.47,1.78,1.78,0,0,0-2.58.39,1.56,1.56,0,0,0,.59,2.17,2.59,2.59,0,0,0,.38.17,1,1,0,0,0-.09.41c-.07,1.36,2,2.2,3,1.32a1.39,1.39,0,0,0,.29-1.37,11.49,11.49,0,0,1,2.11-.36c.86-.09,1.71-.16,2.57-.17l.92,0a23.58,23.58,0,0,0-3,2,16.38,16.38,0,0,0-2.19,2l0,.05a1.37,1.37,0,0,0-1.44-.48,1.29,1.29,0,0,0-.88,1.68c.46.94,2.28.9,2.45-.23a1.32,1.32,0,0,0,.07-.68l.08-.07a24.52,24.52,0,0,1,3.11-2.55,15.75,15.75,0,0,1,2.51-1.61.19.19,0,0,0,.07-.11c1.4,0,2.8,0,4.2.07s2.71.16,4.06.23a3.72,3.72,0,0,1,.57.08.08.08,0,0,0,.07,0c1.56.94,3.15,1.83,4.74,2.71,3.22,1.76,6.55,3.32,9.87,4.88l0,0h0l.35.16c-1.19-.28-2.38-.57-3.53-1a24,24,0,0,0-3.92-.92c-1.39-.25-2.78-.53-4.2-.65a28.41,28.41,0,0,0-10.65,1,21.17,21.17,0,0,0-2.55,1c-.15.09-.37.11-.45.28s.24.26.42.23a4.89,4.89,0,0,1,.54,0,14.07,14.07,0,0,1,2.15.18c1.32.19,2.65.36,4,.43a47.68,47.68,0,0,1,5.85.32c2.27.25,4.56.32,6.84.45a26.06,26.06,0,0,0,5.15.08,23.89,23.89,0,0,0,2.68-.31c2.55,1.2,5.12,2.37,7.73,3.44,1.13.46,2.3.78,3.45,1.18l1.05.39c-.73.11-1.45.32-2.18.45a44.17,44.17,0,0,0-7,2.2.28.28,0,0,0-.13,0l-.78-.08a21,21,0,0,0-3.88-.09,6.53,6.53,0,0,0-1.12.13,1.14,1.14,0,0,0-.93-.77,1.17,1.17,0,0,0-1.09.54,1.48,1.48,0,0,0-.12.29s0,0-.06.06c-.6,1.46,1.6,1.9,2.17.7a1,1,0,0,0,.1-.41l.39,0c1,0,2.11,0,3.17-.05.49,0,1,0,1.48.07l-.12.05a31.31,31.31,0,0,0-5.16,2.79l0,0a1.4,1.4,0,0,0-1.1-.39c-1.32.14-1.9,2.15-.67,2.81a1.43,1.43,0,0,0,2.19-.52,1.68,1.68,0,0,0-.13-1.54l.21-.13a36.49,36.49,0,0,1,9.46-4.33c1.37-.4,2.74-.78,4.14-1.07a16.24,16.24,0,0,1,2-.41,33.93,33.93,0,0,0,3.8,1.28,8,8,0,0,0,1.44.35A.29.29,0,0,0,111,169a.23.23,0,0,0-.24-.26,2.36,2.36,0,0,1-.38-.1l-1.43-.46s0,0,0,0a12.82,12.82,0,0,1-1-1.79c-.43-1-.78-2-1.22-2.92s-1-2-1.54-3a13.54,13.54,0,0,0-3.57-4.08,11.32,11.32,0,0,0-6.14-2.66c-.2,0-.4.05-.4.26s.3.41.44.61a22.8,22.8,0,0,0,2.3,2.31c.91.79,1.75,1.67,2.6,2.54,2.26,2.49,4.33,5.15,6.43,7.77a1.67,1.67,0,0,0,.36.39c-1.08-.41-2.14-.85-3.23-1.22-1.28-.42-2.59-.79-3.84-1.3-2.52-1.05-5-2.18-7.48-3.35l-.29-.49c-.29-.53-.58-1.06-.84-1.61a19.63,19.63,0,0,1-1-2.54c-.22-.63-.46-1.25-.64-1.89a32,32,0,0,1-.69-3.64,15.22,15.22,0,0,1-.35-2c0-.73.33-.75.71-1.26a2.41,2.41,0,0,0-.82-3.28A1.85,1.85,0,0,0,87,145a2,2,0,0,0-1.3,2c0,.62,0,1.4.6,1.8a2.4,2.4,0,0,0,1.9.3c.13.89.27,1.77.42,2.65a22.31,22.31,0,0,0,.39,2.45,32,32,0,0,0,1.72,5c.35.75.76,1.47,1.18,2.18l-1.37-.65-.93-.43a12,12,0,0,1-1-1.27c-.78-1.28-1.58-2.55-2.35-3.83-.27-.45-.5-.92-.75-1.38,0-.07-.08-.15-.17-.18a.17.17,0,0,0-.14,0,1.29,1.29,0,0,0,.16-.18.45.45,0,0,0,.1-.14s0,0,0,0a1.39,1.39,0,0,0,.33-.53,1.92,1.92,0,0,0-.62-2.31,1.86,1.86,0,0,0-1.88.12c-1.11.71-1.3,2.55.09,3.07.5.14,1.24.4,1.7.06a.19.19,0,0,0,0,.09c0,.08,0,.15.07.23a19.66,19.66,0,0,0,1.51,2.78c.65,1,1.26,2.1,2,3.06-1.91-.89-3.82-1.77-5.7-2.73-1.07-.55-2.14-1.11-3.2-1.68a10.84,10.84,0,0,1-.67-1.62,17,17,0,0,1-.53-2.45,68.05,68.05,0,0,0-1.7-7,20.6,20.6,0,0,0-1.74-3.28A15,15,0,0,0,73,138.32a29.14,29.14,0,0,0-3.33-2.95c-.31-.22-.47.11-.3.34a22,22,0,0,1,1.1,2.71c.76,1.85,1.28,3.78,2.06,5.62.77,1.58,1.56,3.15,2.39,4.7.62,1,1.25,2.09,1.93,3.1.42.57.87,1.13,1.29,1.7.15.22.34.4.5.62a.16.16,0,0,0,.13.06c0,.11.17.48.34.85-1-.58-2.09-1.17-3.12-1.79a49.42,49.42,0,0,1-6.61-4.51c-.76-.63-1.58-1.19-2.39-1.74l-.2-.14c-.22-.3-.45-.59-.66-.9A18.07,18.07,0,0,1,64,141.54c-.32-1.07-.6-2,.18-2.91a8.79,8.79,0,0,1,2.64-2.09c.18.82,1,1.46,1.77.78a1.25,1.25,0,0,0,0-1.75c-.51-.44-1.07.09-1.46.36-.55.38-1.23.55-1.77.95-.38.28-1.85,1.32-1.8,1.86a13.26,13.26,0,0,1,0-2.52,9.05,9.05,0,0,1,.71-2.5c.25-.64.46-1.29.67-1.93a4.21,4.21,0,0,1,.34-1c.16-.23.45-.31.61-.58a1.26,1.26,0,0,0-.9-1.82A1.46,1.46,0,0,0,63.41,129.32Zm0,23.43a15.55,15.55,0,0,0-3.66.53,1.68,1.68,0,0,0-1-.91H58.7a1.58,1.58,0,0,0,0-.78.58.58,0,0,0,.07-.21,10.12,10.12,0,0,1,4.17.11,16.16,16.16,0,0,1,2.94.71c.37.15.73.3,1.08.48C65.78,152.68,64.61,152.7,63.43,152.75Z"/><path class="cls-2" d="M195.3,128.39a1.26,1.26,0,0,0-.91,1.82c.16.27.45.35.61.58a3.81,3.81,0,0,1,.34,1c.22.64.42,1.29.68,1.93a9,9,0,0,1,.7,2.5,13.26,13.26,0,0,1,0,2.52c0-.54-1.42-1.58-1.79-1.86-.55-.4-1.22-.57-1.78-.95-.39-.27-.95-.8-1.46-.36a1.25,1.25,0,0,0,0,1.75c.78.68,1.59,0,1.77-.78a8.83,8.83,0,0,1,2.65,2.09c.78.91.5,1.84.18,2.91a18.47,18.47,0,0,1-2.15,4.45c-.21.31-.43.6-.66.9l-.19.14c-.82.55-1.63,1.11-2.4,1.74a48.16,48.16,0,0,1-6.61,4.51c-1,.62-2.07,1.21-3.12,1.79.17-.37.3-.74.35-.85a.16.16,0,0,0,.13-.06c.15-.22.34-.4.49-.62.42-.57.87-1.13,1.29-1.7.68-1,1.32-2.05,1.93-3.1.84-1.55,1.63-3.12,2.39-4.7.78-1.84,1.31-3.77,2.06-5.62a22,22,0,0,1,1.1-2.71c.17-.23,0-.56-.29-.34a29.14,29.14,0,0,0-3.33,2.95,15.07,15.07,0,0,0-2.16,2.74,21.44,21.44,0,0,0-1.74,3.28,70.72,70.72,0,0,0-1.7,7,16.94,16.94,0,0,1-.52,2.45,10.89,10.89,0,0,1-.68,1.62c-1.06.57-2.12,1.13-3.2,1.68-1.87,1-3.79,1.84-5.69,2.73.74-1,1.35-2,2-3.06a20.79,20.79,0,0,0,1.52-2.78c0-.08.09-.15.07-.23a.19.19,0,0,0,0-.09c.46.34,1.21.08,1.7-.06,1.39-.52,1.2-2.36.1-3.07a1.88,1.88,0,0,0-1.89-.12,2,2,0,0,0-.62,2.31,1.39,1.39,0,0,0,.33.53s0,0,.05,0a.67.67,0,0,0,.09.14l.16.18a.17.17,0,0,0-.14,0,.35.35,0,0,0-.16.18c-.26.46-.48.93-.76,1.38-.77,1.28-1.57,2.55-2.34,3.83a12.13,12.13,0,0,1-1,1.27l-.92.43-1.37.65c.41-.71.82-1.43,1.17-2.18a32,32,0,0,0,1.73-5c.19-.8.28-1.63.39-2.45s.28-1.76.41-2.65a2.39,2.39,0,0,0,1.9-.3c.56-.4.57-1.18.6-1.8a2,2,0,0,0-1.29-2,1.87,1.87,0,0,0-1.68,0,2.43,2.43,0,0,0-.82,3.28c.38.51.72.53.71,1.26a13.7,13.7,0,0,1-.34,2,30,30,0,0,1-.7,3.64c-.17.64-.41,1.26-.63,1.89a21.25,21.25,0,0,1-1,2.54c-.26.55-.54,1.08-.84,1.61l-.28.49c-2.48,1.17-5,2.3-7.48,3.35-1.26.51-2.56.88-3.85,1.3-1.08.37-2.15.81-3.22,1.22a1.92,1.92,0,0,0,.36-.39c2.09-2.62,4.16-5.28,6.43-7.77.84-.87,1.68-1.75,2.6-2.54a22.7,22.7,0,0,0,2.29-2.31c.15-.2.39-.35.44-.61s-.2-.3-.39-.26a11.29,11.29,0,0,0-6.14,2.66,13.57,13.57,0,0,0-3.58,4.08c-.54,1-1.06,2-1.53,3s-.8,1.95-1.23,2.92a12.76,12.76,0,0,1-1,1.79l0,0-1.43.46a2.79,2.79,0,0,1-.39.1.22.22,0,0,0-.23.26.29.29,0,0,0,.31.22,7.86,7.86,0,0,0,1.43-.35,33.41,33.41,0,0,0,3.81-1.28,16.65,16.65,0,0,1,2,.41c1.39.29,2.76.67,4.13,1.07a36.19,36.19,0,0,1,9.46,4.33,1.79,1.79,0,0,1,.22.13,1.68,1.68,0,0,0-.14,1.54,1.43,1.43,0,0,0,2.19.52c1.24-.66.65-2.67-.66-2.81a1.39,1.39,0,0,0-1.1.39l0,0a31.22,31.22,0,0,0-5.15-2.79l-.12-.05c.49,0,1-.07,1.48-.07,1.05,0,2.11,0,3.17.05l.39,0a.86.86,0,0,0,.1.41c.57,1.2,2.76.76,2.16-.7,0,0,0,0-.05-.06a2.55,2.55,0,0,0-.13-.29,1.11,1.11,0,0,0-2,.23,6.42,6.42,0,0,0-1.12-.13,21,21,0,0,0-3.88.09l-.78.08a.25.25,0,0,0-.12,0,44,44,0,0,0-7-2.2c-.73-.13-1.44-.34-2.17-.45l1-.39c1.15-.4,2.33-.72,3.46-1.18,2.6-1.07,5.17-2.24,7.73-3.44a23.89,23.89,0,0,0,2.68.31,26.08,26.08,0,0,0,5.15-.08c2.28-.13,4.57-.2,6.84-.45a47.52,47.52,0,0,1,5.84-.32c1.34-.07,2.67-.24,4-.43a13.94,13.94,0,0,1,2.14-.18,5.07,5.07,0,0,1,.55,0c.17,0,.48,0,.42-.23s-.31-.19-.46-.28a21,21,0,0,0-2.54-1,28.46,28.46,0,0,0-10.66-1c-1.41.12-2.8.4-4.2.65a23.88,23.88,0,0,0-3.91.92c-1.16.39-2.34.68-3.53,1l.34-.16h0l0,0c3.33-1.56,6.65-3.12,9.88-4.88,1.59-.88,3.17-1.77,4.73-2.71a.11.11,0,0,0,.08,0,3.43,3.43,0,0,1,.56-.08c1.36-.07,2.72-.08,4.06-.23s2.81-.08,4.21-.07a.19.19,0,0,0,.07.11,16.12,16.12,0,0,1,2.5,1.61,25.34,25.34,0,0,1,3.12,2.55l.07.07a1.32,1.32,0,0,0,.07.68c.17,1.13,2,1.17,2.45.23a1.28,1.28,0,0,0-.88-1.68,1.37,1.37,0,0,0-1.44.48l0-.05a17.72,17.72,0,0,0-2.19-2,23.69,23.69,0,0,0-3.05-2l.92,0c.86,0,1.72.08,2.57.17a11.74,11.74,0,0,1,2.12.36,1.41,1.41,0,0,0,.28,1.37c1,.88,3.07,0,3-1.32a1.29,1.29,0,0,0-.1-.41,1.9,1.9,0,0,0,.38-.17,1.56,1.56,0,0,0,.59-2.17,1.77,1.77,0,0,0-2.57-.39,1,1,0,0,0-.38.47,10.29,10.29,0,0,0-4.9.13c-.56.13-1.13.24-1.68.41a11.43,11.43,0,0,0-1.45.61,6.36,6.36,0,0,0-.58.3.25.25,0,0,0-.16.2h-1.12c-1.45,0-2.88.19-4.33.24-.49,0-1,.06-1.47.11q1.77-1.08,3.45-2.28c.83-.58,1.58-1.26,2.38-1.88a8.05,8.05,0,0,1,2.21-1.4,13.6,13.6,0,0,1,2.79-.39,31.75,31.75,0,0,0,3.77-.43,22.34,22.34,0,0,0,5.5-1.46l2-.85a10.91,10.91,0,0,0,2.07-1,.28.28,0,0,0,.11-.17.25.25,0,0,0-.19-.3c-1.58,0-3.15-.11-4.73-.12a19.46,19.46,0,0,0-3.95.46,28.16,28.16,0,0,0-5.18,2c-.55.31-1.08.65-1.61,1a12.18,12.18,0,0,0,.93-1.44,15.65,15.65,0,0,0,1.25-2.69,6.34,6.34,0,0,0,2.09-.67,8.6,8.6,0,0,0,1.65-1.06,3.18,3.18,0,0,0,.43-.06,10.08,10.08,0,0,0,3-1.24,3.53,3.53,0,0,0,.34-.24c0,.22.25.31.39.42.85.62,1.89.1,1.69-1-.07-.77-.93-1.6-1.72-1.25a1.46,1.46,0,0,0-.69,1.29.59.59,0,0,0,0,.22,9,9,0,0,1-1.34.7c-.51.2-1,.43-1.54.6a25.57,25.57,0,0,0,2-2.16,6.12,6.12,0,0,0,1.2-1.66,1,1,0,0,0,.85.12,1.75,1.75,0,0,0,1-1.1,1.58,1.58,0,0,0-.44-1.41,1.43,1.43,0,0,0-2,0,1.38,1.38,0,0,0-.13,1.94,1.22,1.22,0,0,0,.32.32,8.12,8.12,0,0,1-1.17,1.57A16.23,16.23,0,0,1,200.2,140c-.1,0-.19.07-.2.17-.29.21-.58.42-.88.61a9.15,9.15,0,0,1-1.41.68,3.44,3.44,0,0,1-.94.3.14.14,0,0,1,0-.06,17.53,17.53,0,0,0,.55-4.68,11,11,0,0,0-1.32-4.57,3.8,3.8,0,0,1-.41-1.26.62.62,0,0,1,0-.13,1.24,1.24,0,0,0,.37-.11,1.64,1.64,0,0,0,.82-1.59A1.46,1.46,0,0,0,195.3,128.39Zm-2,24.28c.35-.18.72-.33,1.08-.48a16.57,16.57,0,0,1,2.94-.71,10.16,10.16,0,0,1,4.18-.11.58.58,0,0,0,.07.21,1.58,1.58,0,0,0,0,.78h-.1a1.69,1.69,0,0,0-1,.91,15.48,15.48,0,0,0-3.66-.53C195.61,152.7,194.44,152.68,193.26,152.67Z"/></svg>